<svg id="Grupo_243" data-name="Grupo 243" xmlns="http://www.w3.org/2000/svg" xmlns:xlink="http://www.w3.org/1999/xlink" width="1920" height="1082" viewBox="0 0 1920 1082">
  <defs>
    <linearGradient id="linear-gradient" x1="0.5" x2="0.5" y2="1" gradientUnits="objectBoundingBox">
      <stop offset="0" stop-color="#d214ff"/>
      <stop offset="0.7" stop-color="#5086ff"/>
      <stop offset="1" stop-color="#1a97ff"/>
      <stop offset="1" stop-color="#03a8ff"/>
    </linearGradient>
  </defs>
  <rect id="Rect치ngulo_61" data-name="Rect치ngulo 61" width="1920" height="1082" fill="url(#linear-gradient)"/>
  <g id="Grupo_124" data-name="Grupo 124" transform="translate(788.394 -6984.805)">
    <g id="Grupo_120" data-name="Grupo 120" transform="translate(-375.111 7808.654)">
      <rect id="Rect치ngulo_103" data-name="Rect치ngulo 103" width="328.984" height="223.492" rx="13.958" transform="translate(0 20.075) rotate(-3.498)" fill="#fff" opacity="0.5"/>
      <path id="Trazado_189" data-name="Trazado 189" d="M-338.277,7975.666-108,7961.587c3.956-.241,6.488-4.616,4.981-8.6l-45.793-121.028c-1.652-4.366-6.971-5.335-9.785-1.78l-55.039,69.543a5.494,5.494,0,0,1-8.309.5l-38.416-38a5.5,5.5,0,0,0-8.464.709l-74.411,102.548C-346.314,7969.731-343.276,7975.972-338.277,7975.666Z" transform="translate(397.299 -7766.698)" fill="#fff" opacity="0.5"/>
      <circle id="Elipse_8" data-name="Elipse 8" cx="22.97" cy="22.97" r="22.97" transform="translate(51.087 56.204)" fill="#fff" opacity="0.5"/>
    </g>
    <g id="Grupo_121" data-name="Grupo 121" transform="translate(-589.787 7276.369)" opacity="0.5">
      <path id="Trazado_190" data-name="Trazado 190" d="M-532.39,7453.656a24.542,24.542,0,0,0,28.714,6.269,24.444,24.444,0,0,0,13.061-14.461,5.923,5.923,0,0,1,.811-3.034,24.453,24.453,0,0,0,.257-8.275,24.5,24.5,0,0,0-1.963-6.726,24.641,24.641,0,0,0-1.929-3.463l-81.409-146.139a10.668,10.668,0,0,0-14.13-5.29,10.668,10.668,0,0,0-5.289,14.129l56.749,157.364a24.635,24.635,0,0,0,1.345,3.729A24.532,24.532,0,0,0-532.39,7453.656Z" transform="translate(595.228 -7271.576)" fill="#fff"/>
      <path id="Trazado_191" data-name="Trazado 191" d="M-529.586,7458.413q10.472,29.314,20.945,58.629l37.713,26.2-13.353-39.634a4.04,4.04,0,0,1-3.71-3,4.066,4.066,0,0,1,2.558-4.68,4.015,4.015,0,0,1,4.238,1.586,4.021,4.021,0,0,1-.174,4.768q10.814,18.525,21.627,37.05l2.2-49.07q-14.165-26.025-28.332-52.05a35.1,35.1,0,0,1-18.213,19.32A34.971,34.971,0,0,1-529.586,7458.413Z" transform="translate(599.612 -7260.446)" fill="#fff"/>
    </g>
    <g id="Grupo_122" data-name="Grupo 122" transform="translate(-676.687 7658.491)">
      <path id="Trazado_192" data-name="Trazado 192" d="M-494.952,7635.9c-34.017-16.037-81.579,1.473-95.446,28.809-10.522,20.743,3.321,37.364-9.915,52.946-15.092,17.766-39.4,3.582-59.253,20.837-17.867,15.524-21.066,46.885-12.771,69.168,13.606,36.546,58.048,48.446,83.958,49.42,60.954,2.29,119.92-52.117,130.383-113.382C-453.268,7716.024-453.089,7655.632-494.952,7635.9ZM-612.8,7803.842a20.635,20.635,0,0,1-26.315-12.622,20.637,20.637,0,0,1,12.622-26.314,20.637,20.637,0,0,1,26.314,12.622A20.636,20.636,0,0,1-612.8,7803.842Z" transform="translate(676.687 -7629.774)" fill="#fff" opacity="0.5"/>
      <circle id="Elipse_9" data-name="Elipse 9" cx="16.151" cy="16.151" r="16.151" transform="translate(141.957 20.157)" fill="#fff" opacity="0.5"/>
      <circle id="Elipse_10" data-name="Elipse 10" cx="16.151" cy="16.151" r="16.151" transform="translate(164.58 84.488)" fill="#fff" opacity="0.5"/>
      <circle id="Elipse_11" data-name="Elipse 11" cx="16.151" cy="16.151" r="16.151" transform="translate(128.424 146.662)" fill="#fff" opacity="0.5"/>
    </g>
    <path id="Trazado_193" data-name="Trazado 193" d="M-173.386,7409.436l3.539.654,20.332-110.045a28.324,28.324,0,0,0,10.044-11.867,28.459,28.459,0,0,0-10.923-35.937l6.167-13.6,4.182,1.9,15.545-34.283-14.215-6.446-15.546,34.283,3.345,1.517-6.168,13.6a28.461,28.461,0,0,0-34.23,15.462,28.325,28.325,0,0,0-2.309,15.375l-69.385,87.8,3.645,2.88-14.577,17.59,6.363,5.272,14.7-17.737,4.277,3.379,64.374-81.461a28.453,28.453,0,0,0,7.079,4.576,28.454,28.454,0,0,0,8.107,2.311l-18.863,102.1,6.39,1.181-4.153,25.821,8.158,1.313Zm1.927-119.634a14.692,14.692,0,0,1-7.313-19.447,14.691,14.691,0,0,1,19.446-7.312,14.69,14.69,0,0,1,7.312,19.445A14.691,14.691,0,0,1-171.459,7289.8Z" transform="translate(26.899)" fill="#fff" opacity="0.5"/>
    <g id="Grupo_123" data-name="Grupo 123" transform="translate(-357.662 7500.262)">
      <path id="Trazado_194" data-name="Trazado 194" d="M-314.4,7483.157l-63.061,169.152a2.62,2.62,0,0,0,3.373,3.37l75.5-28.227a2.622,2.622,0,0,1,3.192,1.152l41.287,72.01a2.621,2.621,0,0,0,4.73-.388l63.117-169.3a2.621,2.621,0,0,0-1.54-3.372l-123.22-45.938A2.621,2.621,0,0,0-314.4,7483.157Z" transform="translate(377.635 -7481.452)" fill="#fff" opacity="0.5"/>
      <path id="Trazado_195" data-name="Trazado 195" d="M-267.749,7580.054l-11.754-13.136-17.485,2.235,8.861-15.238-7.53-15.939,17.231,3.719,12.832-12.086,1.788,17.537,15.46,8.468-16.126,7.12Z" transform="translate(383.022 -7478.235)" fill="#fff" opacity="0.5"/>
    </g>
  </g>
</svg>
