<?xml version="1.0" encoding="utf-8"?>
<!-- Generator: Adobe Illustrator 25.3.1, SVG Export Plug-In . SVG Version: 6.00 Build 0)  -->
<svg version="1.1" id="Capa_1" xmlns="http://www.w3.org/2000/svg" xmlns:xlink="http://www.w3.org/1999/xlink" x="0px" y="0px"
	 viewBox="0 0 1920 1131.2" style="enable-background:new 0 0 1920 1131.2;" xml:space="preserve">
<style type="text/css">
	.st0{opacity:0.66;fill:url(#Trazado_181_1_);enable-background:new    ;}
	.st1{opacity:0.5;fill:#FFFFFF;enable-background:new    ;}
	.st2{fill:none;}
	.st3{opacity:0.52;fill:#FFFFFF;enable-background:new    ;}
</style>
<g id="Grupo_241" transform="translate(0)">
	
		<linearGradient id="Trazado_181_1_" gradientUnits="userSpaceOnUse" x1="663.1129" y1="985.923" x2="662.661" y2="984.8402" gradientTransform="matrix(-1920 0 0 1079 1273622 -1062552.125)">
		<stop  offset="0" style="stop-color:#00B1FF"/>
		<stop  offset="0.532" style="stop-color:#6600FF"/>
		<stop  offset="1" style="stop-color:#FF00B5"/>
	</linearGradient>
	<path id="Trazado_181" class="st0" d="M1920,1131.2H0V0h1920V1131.2z"/>
	<g id="Grupo_113" transform="translate(768 -6968.328)">
		<g id="Grupo_109" transform="translate(-349.277 7187)">
			<path id="Rectángulo_63" class="st1" d="M10.6,0h365.8c5.9,0,10.6,4.8,10.6,10.6v375.1c0,5.9-4.8,10.6-10.6,10.6H10.6
				c-5.9,0-10.6-4.8-10.6-10.6V10.6C0,4.8,4.8,0,10.6,0z"/>
			<path id="Rectángulo_64" class="st1" d="M32.6,53.5h316.1c3,0,5.4,2.4,5.4,5.4V82c0,3-2.4,5.4-5.4,5.4H32.6
				c-3,0-5.4-2.4-5.4-5.4V58.9C27.2,55.9,29.6,53.5,32.6,53.5z"/>
			<line id="Línea_13" class="st2" x1="201.2" y1="61.1" x2="329.3" y2="61.1"/>
			<path id="Rectángulo_65" class="st1" d="M33.6,117.4H238c3.5,0,6.3,2.8,6.3,6.3v118.8c0,3.5-2.8,6.3-6.3,6.3H33.6
				c-3.5,0-6.3-2.8-6.3-6.3V123.7C27.2,120.2,30.1,117.4,33.6,117.4z"/>
			<path id="Rectángulo_66" class="st1" d="M270.6,117.4h82.8c3.5,0,6.3,2.8,6.3,6.3v118.8c0,3.5-2.8,6.3-6.3,6.3h-82.8
				c-3.5,0-6.3-2.8-6.3-6.3V123.7C264.3,120.2,267.1,117.4,270.6,117.4z"/>
			<path id="Rectángulo_67" class="st1" d="M270.3,271.9h83.1c3.5,0,6.3,2.8,6.3,6.3v82.7c0,3.5-2.8,6.3-6.3,6.3h-83.1
				c-3.5,0-6.3-2.8-6.3-6.3v-82.7C263.9,274.7,266.8,271.9,270.3,271.9z"/>
			<path id="Rectángulo_68" class="st1" d="M155,271.9h83.1c3.5,0,6.3,2.8,6.3,6.3v83.1c0,3.5-2.8,6.3-6.3,6.3H155
				c-3.5,0-6.3-2.8-6.3-6.3v-83.1C148.6,274.8,151.5,271.9,155,271.9z"/>
			<path id="Rectángulo_69" class="st1" d="M33.6,271.5h83.1c3.5,0,6.3,2.8,6.3,6.3v83.1c0,3.5-2.8,6.3-6.3,6.3H33.6
				c-3.5,0-6.3-2.8-6.3-6.3v-83.1C27.2,274.3,30.1,271.5,33.6,271.5z"/>
			<circle id="Elipse_1" class="st3" cx="34.8" cy="29.1" r="3.8"/>
			<circle id="Elipse_2" class="st3" cx="68.6" cy="29.1" r="3.8"/>
			<circle id="Elipse_3" class="st3" cx="102.4" cy="29.1" r="3.8"/>
		</g>
		<g id="Grupo_110" transform="translate(-727.5 7382.81)">
			<path id="Rectángulo_71" class="st1" d="M29.3,186.1h276.1c3,0,5.4,2.4,5.4,5.4v65.4c0,3-2.4,5.4-5.4,5.4H29.3
				c-3,0-5.4-2.4-5.4-5.4v-65.4C23.9,188.5,26.3,186.1,29.3,186.1z"/>
			<path id="Rectángulo_72" class="st1" d="M29.3,289.1h276.1c3,0,5.4,2.4,5.4,5.4v27.4c0,3-2.4,5.4-5.4,5.4H29.3
				c-3,0-5.4-2.4-5.4-5.4v-27.4C23.9,291.5,26.3,289.1,29.3,289.1z"/>
			<path id="Rectángulo_73" class="st1" d="M29.3,27h276.1c3,0,5.4,2.4,5.4,5.4v8.8c0,3-2.4,5.4-5.4,5.4H29.3c-3,0-5.4-2.4-5.4-5.4
				v-8.8C23.9,29.4,26.3,27,29.3,27z"/>
			<path id="Rectángulo_74" class="st1" d="M136.8,76.8h168.1c3.5,0,6.3,2.8,6.3,6.3v17.2c0,3.5-2.8,6.3-6.3,6.3H136.8
				c-3.5,0-6.3-2.8-6.3-6.3V83.1C130.4,79.6,133.3,76.8,136.8,76.8z"/>
			<path id="Rectángulo_75" class="st1" d="M136.8,132.4h167.6c3.5,0,6.3,2.8,6.3,6.3v13.1c0,3.5-2.8,6.3-6.3,6.3H136.8
				c-3.5,0-6.3-2.8-6.3-6.3v-13.1C130.4,135.3,133.3,132.4,136.8,132.4z"/>
			<path id="Rectángulo_76" class="st1" d="M64.7,76.4h2.5c22.5,0,40.8,18.3,40.8,40.8v2.5c0,22.5-18.3,40.8-40.8,40.8h-2.5
				c-22.5,0-40.8-18.3-40.8-40.8v-2.5C23.9,94.7,42.2,76.4,64.7,76.4z"/>
		</g>
		<g id="Grupo_111" transform="translate(-349.277 7654.368)">
			<path id="Rectángulo_78" class="st1" d="M108,161.7H42.5c-3,0-5.4-2.4-5.4-5.4V90.9c0-3,2.4-5.4,5.4-5.4H108
				c3,0,5.4,2.4,5.4,5.4v65.4C113.4,159.3,111,161.7,108,161.7z"/>
			<path id="Rectángulo_79" class="st1" d="M202.8,161.7h-65.5c-3,0-5.4-2.4-5.4-5.4V90.9c0-3,2.4-5.4,5.4-5.4h65.5
				c3,0,5.4,2.4,5.4,5.4v65.4C208.2,159.3,205.8,161.7,202.8,161.7z"/>
			<path id="Rectángulo_80" class="st1" d="M310.3,58.7H42.5c-3,0-5.4-2.4-5.4-5.4V26c0-3,2.4-5.4,5.4-5.4h267.8
				c3,0,5.4,2.4,5.4,5.4v27.4C315.7,56.3,313.3,58.7,310.3,58.7z"/>
			<path id="Rectángulo_81" class="st1" d="M305.4,269.2h-265c-3,0-5.4-2.4-5.4-5.4V257c0-3,2.4-5.4,5.4-5.4h265
				c3,0,5.4,2.4,5.4,5.4v6.8C310.8,266.8,308.4,269.2,305.4,269.2z"/>
			<path id="Rectángulo_82" class="st1" d="M305.4,307.1h-265c-3,0-5.4-2.4-5.4-5.4v-6.8c0-3,2.4-5.4,5.4-5.4h265
				c3,0,5.4,2.4,5.4,5.4v6.8C310.8,304.7,308.4,307.1,305.4,307.1z"/>
			<path id="Rectángulo_83" class="st1" d="M304.3,226.7H42.2c-3.5,0-6.3-2.8-6.3-6.3V196c0-3.5,2.8-6.3,6.3-6.3h262.1
				c3.5,0,6.3,2.8,6.3,6.3v24.4C310.7,223.9,307.8,226.7,304.3,226.7z"/>
			<path id="Rectángulo_84" class="st1" d="M270,165.7h-2.5c-22.5,0-40.8-18.3-40.8-40.8v-2.5c0-22.5,18.3-40.8,40.8-40.8h2.5
				c22.5,0,40.8,18.3,40.8,40.8v2.5C310.8,147.4,292.5,165.7,270,165.7z"/>
		</g>
		<g id="Grupo_112" transform="translate(-681.124 7806.894)">
			<path id="Rectángulo_85" class="st1" d="M10.6,0h264.5c5.9,0,10.6,4.8,10.6,10.6v271.5c0,5.9-4.8,10.6-10.6,10.6H10.6
				c-5.9,0-10.6-4.8-10.6-10.6V10.6C0,4.8,4.8,0,10.6,0z"/>
			<path id="Rectángulo_86" class="st1" d="M25.5,156.6h230.6c3,0,5.4,2.4,5.4,5.4v53.4c0,3-2.4,5.4-5.4,5.4H25.5
				c-3,0-5.4-2.4-5.4-5.4V162C20.1,159,22.5,156.6,25.5,156.6z"/>
			<path id="Rectángulo_87" class="st1" d="M25.5,243.3h230.6c3,0,5.4,2.4,5.4,5.4V270c0,3-2.4,5.4-5.4,5.4H25.5
				c-3,0-5.4-2.4-5.4-5.4v-21.3C20.1,245.7,22.5,243.3,25.5,243.3z"/>
			<path id="Rectángulo_88" class="st1" d="M24.6,46.4h61.8c2.6,0,4.6,2.1,4.6,4.6v0.3c0,2.6-2.1,4.6-4.6,4.6H24.6
				c-2.6,0-4.6-2.1-4.6-4.6V51C19.9,48.5,22,46.4,24.6,46.4z"/>
			<path id="Rectángulo_89" class="st1" d="M114.9,46.4h60.8c2.6,0,4.6,2.1,4.6,4.6v0.3c0,2.6-2.1,4.6-4.6,4.6h-60.8
				c-2.6,0-4.6-2.1-4.6-4.6V51C110.3,48.5,112.4,46.4,114.9,46.4z"/>
			<path id="Rectángulo_90" class="st1" d="M199.9,46.4h60c2.6,0,4.6,2.1,4.6,4.6v0.3c0,2.6-2.1,4.6-4.6,4.6h-60
				c-2.6,0-4.6-2.1-4.6-4.6V51C195.3,48.5,197.4,46.4,199.9,46.4z"/>
			<path id="Rectángulo_91" class="st1" d="M201.2,64.6h58.1c3.5,0,6.3,2.8,6.3,6.3v57.8c0,3.5-2.8,6.3-6.3,6.3h-58.1
				c-3.5,0-6.3-2.8-6.3-6.3V70.9C194.9,67.4,197.7,64.6,201.2,64.6z"/>
			<path id="Rectángulo_92" class="st1" d="M116.1,64.6h58.1c3.5,0,6.3,2.8,6.3,6.3V129c0,3.5-2.8,6.3-6.3,6.3h-58.1
				c-3.5,0-6.3-2.8-6.3-6.3V71C109.8,67.5,112.6,64.6,116.1,64.6z"/>
			<path id="Rectángulo_93" class="st1" d="M26.4,64.3h58.1c3.5,0,6.3,2.8,6.3,6.3v58.1c0,3.5-2.8,6.3-6.3,6.3H26.4
				c-3.5,0-6.3-2.8-6.3-6.3V70.6C20.1,67.1,22.9,64.3,26.4,64.3z"/>
			<circle id="Elipse_4" class="st3" cx="25.7" cy="21.5" r="2.8"/>
			<circle id="Elipse_5" class="st3" cx="50.6" cy="21.5" r="2.8"/>
			<circle id="Elipse_6" class="st3" cx="75.6" cy="21.5" r="2.8"/>
		</g>
	</g>
</g>
</svg>
