<?xml version="1.0" encoding="utf-8"?>
<!-- Generator: Adobe Illustrator 25.2.3, SVG Export Plug-In . SVG Version: 6.00 Build 0)  -->
<svg version="1.1" id="Capa_1" xmlns="http://www.w3.org/2000/svg" xmlns:xlink="http://www.w3.org/1999/xlink" x="0px" y="0px"
	 viewBox="0 0 1016.6 1080" style="enable-background:new 0 0 1016.6 1080;" xml:space="preserve">
<style type="text/css">
	.st0{fill:url(#Trazado_181_2_);enable-background:new    ;}
	.st1{opacity:0.5;}
	.st2{fill:#FFFFFF;}
	.st3{opacity:0.5;fill:#FFFFFF;enable-background:new    ;}
	.st4{opacity:0.5;fill:none;stroke:#FFFFFF;stroke-width:9;stroke-miterlimit:10;enable-background:new    ;}
	.st5{opacity:0.5;fill:none;stroke:#C9B1FF;stroke-width:20;enable-background:new    ;}
</style>
<g id="Grupo_244">
	
		<linearGradient id="Trazado_181_2_" gradientUnits="userSpaceOnUse" x1="-3151.3264" y1="3035.5232" x2="-3151.7666" y2="3036.573" gradientTransform="matrix(1287 0 0 1079 4056468 -3275463.5)">
		<stop  offset="0" style="stop-color:#69AFFF"/>
		<stop  offset="0.53" style="stop-color:#8B57FF"/>
		<stop  offset="1" style="stop-color:#F857C6"/>
	</linearGradient>
	<path id="Trazado_181_1_" class="st0" d="M-269.7,0.5h1287v1079h-1287V0.5z"/>
	<g id="Grupo_160">
		<g id="Grupo_119">
			<g id="Grupo_116" class="st1">
				<path id="Rectángulo_95" class="st2" d="M181.2,1069.9l16.8-1.7c2.8-0.3,5.2,1.7,5.5,4.5l2.5,23.9c0.3,2.8-1.7,5.2-4.5,5.5
					l-16.8,1.7c-2.8,0.3-5.2-1.7-5.5-4.5l-2.5-23.9C176.4,1072.6,178.4,1070.2,181.2,1069.9z"/>
				<path id="Rectángulo_96" class="st2" d="M227.8,1012.5l16.8-1.7c2.8-0.3,5.2,1.7,5.5,4.5l7.9,75.9c0.3,2.8-1.7,5.2-4.5,5.5
					l-16.8,1.7c-2.8,0.3-5.2-1.7-5.5-4.5l-7.9-75.9C223,1015.3,225,1012.8,227.8,1012.5z"/>
				<path id="Rectángulo_98" class="st2" d="M274.5,956.7l16.8-1.7c2.8-0.3,5.2,1.7,5.5,4.5l13.1,126.3c0.3,2.8-1.7,5.2-4.5,5.5
					l-16.8,1.7c-2.8,0.3-5.2-1.7-5.5-4.5L270,962.2C269.8,959.5,271.8,957,274.5,956.7z"/>
				<path id="Rectángulo_99" class="st2" d="M319.6,899.5l16.8-1.7c2.8-0.3,5.2,1.7,5.5,4.5l18.5,178.3c0.3,2.8-1.7,5.2-4.5,5.5
					l-16.8,1.7c-2.8,0.3-5.2-1.7-5.5-4.5L315.1,905C314.8,902.3,316.8,899.8,319.6,899.5z"/>
			</g>
			<g id="Grupo_117" class="st1">
				<path id="Trazado_186" class="st2" d="M810.6,731c19,10.1,26.2,33.7,16.1,52.7c-10.1,19-33.7,26.2-52.7,16.1
					c-19-10.1-26.2-33.7-16.1-52.7c0,0,0,0,0,0C768,728.1,791.6,720.9,810.6,731 M816,720.9c-24.9-12.4-55.2-2.3-67.7,22.6
					c-12,24-3.1,53.2,20.3,66.4l0,0c24.3,13.7,55.1,5.2,68.8-19.1c13.7-24.3,5.2-55.1-19.1-68.8C817.6,721.7,816.8,721.3,816,720.9z
					"/>
				
					<rect id="Rectángulo_100" x="732.8" y="818.7" transform="matrix(0.4692 -0.8831 0.8831 0.4692 -328.0832 1107.1493)" class="st2" width="48.2" height="15.5"/>
				<path id="Rectángulo_101" class="st2" d="M704.2,898.1l25.8-48.6c2.5-4.6,8.2-6.4,12.8-3.9l5.1,2.7c4.6,2.5,6.4,8.2,3.9,12.8
					L726,909.7c-2.5,4.6-8.2,6.4-12.8,3.9l-5.1-2.7C703.5,908.5,701.8,902.8,704.2,898.1z"/>
			</g>
			<path id="Trazado_188" class="st3" d="M666.1,715h-80.7c-7,1.2-11.5,4.8-12.6,11.9v49.6c1.1,6.5,4.2,11.7,12.6,12.7h21.8
				c3.3,0,4.5,0.6,5.9,3.2l6.3,11.3c1.8,3.8,4,3.3,6,3.6c3.4,0,5.2-1.4,6.3-3.6l6.7-11.4c1.5-3,3.9-3.1,5.9-3.1h21.8
				c8.4-1.1,10.8-6.6,12.3-12.7v-49.6C677.2,721.1,674.7,716.1,666.1,715z M643.8,756.2l-17.3,17.3c-0.4,0.4-1,0.4-1.3,0
				c0,0,0,0,0,0l0,0l-17.3-17.3c-5.1-5.1-5.2-13.5,0-18.6c0.7-0.7,1.5-1.3,2.3-1.8c2.1-1.4,4.6-2.1,7.1-2c5.3,0.3,8.3,5.4,8.6,5.8
				c0.3-0.5,3.4-5.5,8.7-5.8c2.5-0.1,5,0.6,7.1,2c6.1,3.9,8,12.1,4,18.2C645,754.8,644.4,755.5,643.8,756.2z"/>
		</g>
		<g id="Grupo_129">
			<g id="Grupo_122">
				<path id="Trazado_192" class="st3" d="M540,1004.5c20.8-19.9,21.3-58.7,5.6-76.1c-11.9-13.2-27.6-7.9-35.1-21.6
					c-8.5-15.6,8.2-29.1,1.4-48c-6.2-17-27.7-27.9-45.9-28.1c-29.8-0.3-50.5,28.2-58.3,46.4c-18.3,42.9,4.4,99.9,45.2,124.2
					C471.4,1012.3,514.5,1029,540,1004.5z M452.4,874.3c0.2-8.7,7.5-15.6,16.2-15.3c8.7,0.2,15.6,7.5,15.3,16.2s-7.5,15.6-16.2,15.3
					c0,0,0,0,0,0l0,0C459,890.3,452.2,883,452.4,874.3C452.4,874.3,452.4,874.3,452.4,874.3z"/>
				<circle id="Elipse_9" class="st3" cx="525" cy="979.3" r="12.3"/>
				<circle id="Elipse_10" class="st3" cx="472.8" cy="977.8" r="12.3"/>
				<circle id="Elipse_11" class="st3" cx="438.3" cy="935" r="12.3"/>
			</g>
		</g>
		<g id="Grupo_110">
			<path id="Rectángulo_71" class="st3" d="M830.8,1022.8h222.4c3,0,5.4,2.4,5.4,5.4v51.2c0,3-2.4,5.4-5.4,5.4H830.8
				c-3,0-5.4-2.4-5.4-5.4v-51.2C825.4,1025.2,827.8,1022.8,830.8,1022.8z"/>
			<path id="Rectángulo_73" class="st3" d="M830.8,893.5h222.4c3,0,5.4,2.4,5.4,5.4v5.2c0,3-2.4,5.4-5.4,5.4H830.8
				c-3,0-5.4-2.4-5.4-5.4v-5.2C825.4,895.9,827.8,893.5,830.8,893.5z"/>
			<path id="Rectángulo_74" class="st3" d="M918.3,934h134.3c3.5,0,6.3,2.8,6.3,6.3v11.6c0,3.5-2.8,6.3-6.3,6.3H918.3
				c-3.5,0-6.3-2.8-6.3-6.3v-11.6C912,936.8,914.8,934,918.3,934z"/>
			<path id="Rectángulo_75" class="st3" d="M918.3,979.2h133.9c3.5,0,6.3,2.8,6.3,6.3v8.3c0,3.5-2.8,6.3-6.3,6.3H918.3
				c-3.5,0-6.3-2.8-6.3-6.3v-8.3C912,982,914.8,979.2,918.3,979.2z"/>
			<path id="Rectángulo_76" class="st3" d="M859.6,933.7L859.6,933.7c18.9,0,34.2,15.3,34.2,34.2l0,0c0,18.9-15.3,34.2-34.1,34.2
				c0,0,0,0,0,0l0,0c-18.9,0-34.2-15.3-34.2-34.2c0,0,0,0,0,0l0,0C825.4,949,840.7,933.7,859.6,933.7
				C859.6,933.7,859.6,933.7,859.6,933.7z"/>
		</g>
		<g id="Grupo_120">
			<path id="Trazado_311" class="st3" d="M643,985.7l128.6,20.7c8.1,1.3,13.4,9.6,11.8,18.5l-14.9,86c-1.5,8.9-9.3,15.1-17.4,13.8
				l-128.6-20.7c-8.1-1.3-13.4-9.6-11.8-18.5l14.9-86C627.1,990.6,634.9,984.4,643,985.7z"/>
			<path id="Trazado_189" class="st3" d="M625.4,1089.6l119,20.9c1.5,0.3,3.1-0.6,3.4-2.2c0.1-0.3,0.1-0.7,0-1.1l-10.9-59.4
				c-0.4-1.7-2-2.8-3.7-2.4c0,0,0,0,0,0c-0.4,0.1-0.8,0.2-1.1,0.5l-35.2,24.5c-1.4,0.9-3.3,0.6-4.3-0.8l-15.7-21.5
				c-1-1.4-3-1.7-4.4-0.7l-48.5,37c-1.2,1-1.4,2.8-0.4,4.1C624,1089.1,624.7,1089.5,625.4,1089.6L625.4,1089.6z"/>
			<circle id="Elipse_8" class="st3" cx="657.2" cy="1021.8" r="10.5"/>
		</g>
		<g id="Grupo_130">
			<path id="Trazado_311-2" class="st3" d="M887.4,695.5l142.5-17.2c8.9-1.1,17.1,6.1,18.2,16l10.3,95.6c1.1,9.9-5.3,18.8-14.3,19.9
				l-142.4,17.1c-9,1.1-17.1-6.1-18.2-16l-10.3-95.5C872.1,705.5,878.5,696.6,887.4,695.5z"/>
			<path id="Trazado_189-2" class="st3" d="M900.4,810.8l132.3-14c1.7-0.1,3-1.6,2.9-3.3c0-0.4-0.1-0.8-0.3-1.1l-29.6-59.6
				c-0.9-1.7-3-2.3-4.6-1.4c0,0,0,0,0,0c-0.4,0.2-0.7,0.5-1,0.8l-29.9,36.7c-1.2,1.4-3.3,1.6-4.8,0.5l-23.1-18
				c-1.5-1.2-3.7-0.9-4.9,0.6l-40.2,53.9c-1,1.4-0.7,3.4,0.7,4.5C898.7,810.8,899.6,811,900.4,810.8L900.4,810.8z"/>
			<circle id="Elipse_8-2" class="st3" cx="913.5" cy="729.4" r="11.6"/>
		</g>
		<g id="Grupo_132">
			<g id="Grupo_117-2" class="st1">
				<path id="Trazado_186-2" class="st2" d="M724.2,130.1c-18.3-11.4-23.8-35.5-12.3-53.8c11.4-18.3,35.5-23.8,53.8-12.3
					c18.2,11.4,23.8,35.4,12.4,53.7C766.6,136,742.5,141.5,724.2,130.1 M718.2,139.8c23.5,14.9,54.7,8,69.7-15.6s8-54.7-15.6-69.7
					c-0.2-0.1-0.4-0.3-0.6-0.4l0,0c-23.8-14.6-54.8-7.2-69.5,16.6C687.7,94.3,694.8,125.1,718.2,139.8z"/>
				
					<rect id="Rectángulo_100-2" x="760.4" y="30.8" transform="matrix(0.5299 -0.848 0.848 0.5299 336.0585 683.426)" class="st2" width="48.2" height="15.5"/>
				<path id="Rectángulo_101-2" class="st2" d="M792,2.8L821.2-44c2.8-4.4,8.6-5.8,13.1-3l4.9,3c4.4,2.8,5.8,8.6,3,13.1L813,15.9
					c-2.8,4.4-8.6,5.8-13.1,3l-4.9-3C790.6,13.1,789.2,7.3,792,2.8z"/>
			</g>
			<path id="Trazado_188-2" class="st3" d="M625.4-34L518.9-15.2C510-12,504.8-6.1,505,3.5L516.6,69c3,8.4,8.3,14.4,19.6,13.9
				l28.8-5.1c4.3-0.8,6.1-0.2,8.5,2.9l11,13.4c3.3,4.6,6,3.5,8.8,3.4c4.5-0.7,6.6-3.1,7.5-6.2l6.2-16.6c1.3-4.4,4.5-5,7.1-5.4
				l28.7-5.1c10.8-3.4,12.7-11.2,13.3-19.7l-11.6-65.5C641.4-28.5,637-34.6,625.4-34z M605.4,25.6l-18.8,26.8
				c-0.4,0.6-1.2,0.7-1.8,0.3c0,0,0,0,0,0l0,0L558,34c-8-5.6-9.9-16.6-4.3-24.6c0.7-1.1,1.6-2,2.6-2.9c2.4-2.3,5.5-3.8,8.8-4.3
				c7.1-0.8,12.2,5.2,12.7,5.7c0.3-0.7,3.2-8.1,10.2-9.8c3.3-0.7,6.7-0.3,9.8,1c5.6,2.3,9.6,7.3,10.7,13.3
				C609.2,17,608.2,21.7,605.4,25.6L605.4,25.6z"/>
		</g>
		<g id="Grupo_133">
			<g id="Grupo_121-2" class="st1">
				<path id="Trazado_190-2" class="st2" d="M842,475.9c-9.7,3.5-14.8,14.3-11.3,24c1.1,3.2,3.1,5.9,5.7,8.1
					c0.8,0.3,1.4,0.8,1.9,1.4c4.2,2.7,9.3,3.6,14.2,2.5l126.6-18.1c4.5-0.3,7.9-4.1,7.6-8.6c-0.3-4.5-4.1-7.9-8.6-7.6l-127.9-2.6
					C847.4,474.6,844.6,474.9,842,475.9L842,475.9z"/>
				<path id="Trazado_191-2" class="st2" d="M828.6,476.7l-47.6-1.1l-29,19.8l32,1.3c0.6-1.5,2.3-2.3,3.8-1.7
					c1.5,0.6,2.3,2.3,1.7,3.8c-0.6,1.5-2.3,2.3-3.8,1.7c-0.6-0.3-1.2-0.7-1.5-1.3l-32.4,5.3l34.4,15l44.9-6
					C820.4,503.9,819.3,487.5,828.6,476.7L828.6,476.7z"/>
			</g>
			<g id="Grupo_122-2">
				<path id="Trazado_192-2" class="st3" d="M552.6,290.9c20.8-19.9,21.3-58.7,5.6-76.1c-11.9-13.2-27.6-7.9-35.1-21.6
					c-8.5-15.6,8.2-29.1,1.4-48c-6.2-17-27.7-27.9-45.9-28.1c-29.8-0.3-50.5,28.2-58.3,46.4c-18.3,42.9,4.3,99.9,45.2,124.2
					C483.9,298.7,527,315.4,552.6,290.9z M465,160.7c0.2-8.7,7.5-15.6,16.2-15.3c8.7,0.2,15.6,7.5,15.3,16.2
					c-0.2,8.7-7.5,15.6-16.2,15.3c0,0,0,0,0,0l0,0C471.6,176.6,464.8,169.4,465,160.7z"/>
				<circle id="Elipse_9-2" class="st3" cx="537.5" cy="265.7" r="12.3"/>
				<circle id="Elipse_10-2" class="st3" cx="485.4" cy="264.2" r="12.4"/>
				<circle id="Elipse_11-2" class="st3" cx="450.9" cy="221.4" r="12.4"/>
			</g>
			<path id="Trazado_193-2" class="st3" d="M527,519l-1.4,2.3l73,44.7c2.7,11.7,14.3,19,26.1,16.4c3-0.7,5.9-2,8.4-3.9l8,8.1
				l-2.5,2.5l20.2,20.5l8.5-8.4L647,580.7l-2,2l-8-8.1c7.4-9.5,5.7-23.1-3.7-30.5c-2.4-1.9-5.3-3.3-8.3-4l-43.7-73.6l-3,1.8
				l-8.6-15.2l-5.5,3.1l8.6,15.4l-3.6,2.1l40.5,68.3c-3.9,2-7,5.2-9.1,9l-67.8-41.5l-2.6,4.2L513,503.5l-3.1,5.5L527,519z
				 M611.9,553.2c4.4-4.4,11.5-4.3,15.9,0.1c4.4,4.4,4.3,11.5-0.1,15.9c-4.4,4.4-11.5,4.3-15.9-0.1c0,0,0,0,0,0l0,0
				C607.4,564.6,607.5,557.5,611.9,553.2C611.9,553.2,611.9,553.2,611.9,553.2L611.9,553.2z"/>
		</g>
		<g id="Grupo_134">
			<path id="Rectángulo_71-2" class="st3" d="M843.4,309.2h222.4c3,0,5.4,2.4,5.4,5.4v51.2c0,3-2.4,5.4-5.4,5.4H843.4
				c-3,0-5.4-2.4-5.4-5.4v-51.2C838,311.6,840.4,309.2,843.4,309.2z"/>
			<path id="Rectángulo_72-2" class="st3" d="M843.4,392.9h222.4c3,0,5.4,2.4,5.4,5.4v20.2c0,3-2.4,5.4-5.4,5.4H843.4
				c-3,0-5.4-2.4-5.4-5.4v-20.2C838,395.3,840.4,392.9,843.4,392.9z"/>
			<path id="Rectángulo_73-2" class="st3" d="M843.4,179.9h222.4c3,0,5.4,2.4,5.4,5.4v5.2c0,3-2.4,5.4-5.4,5.4H843.4
				c-3,0-5.4-2.4-5.4-5.4v-5.2C838,182.3,840.4,179.9,843.4,179.9z"/>
			<path id="Rectángulo_74-2" class="st3" d="M930.9,220.4h134.3c3.5,0,6.3,2.8,6.3,6.3v11.6c0,3.5-2.8,6.3-6.3,6.3H930.9
				c-3.5,0-6.3-2.8-6.3-6.3v-11.6C924.6,223.2,927.4,220.4,930.9,220.4z"/>
			<path id="Rectángulo_75-2" class="st3" d="M930.9,265.6h133.9c3.5,0,6.3,2.8,6.3,6.3v8.3c0,3.5-2.8,6.3-6.3,6.3H930.9
				c-3.5,0-6.3-2.8-6.3-6.3v-8.3C924.6,268.4,927.4,265.6,930.9,265.6z"/>
			<path id="Rectángulo_76-2" class="st3" d="M872.2,220.1L872.2,220.1c18.9,0,34.2,15.3,34.2,34.2l0,0c0,18.9-15.3,34.2-34.2,34.2
				l0,0c-18.9,0-34.2-15.3-34.2-34.2l0,0C838,235.3,853.3,220.1,872.2,220.1z"/>
		</g>
		<g id="Grupo_135">
			<path id="Trazado_311-3" class="st3" d="M647.5,166.6l128.6,20.7c8.1,1.3,13.4,9.6,11.8,18.5l-14.9,86
				c-1.5,8.9-9.3,15.1-17.4,13.8L627,284.8c-8.1-1.3-13.4-9.6-11.8-18.5l14.9-86C631.7,171.4,639.5,165.3,647.5,166.6z"/>
			<path id="Trazado_189-3" class="st3" d="M630,270.4l119,20.9c1.5,0.3,3.1-0.6,3.4-2.2c0.1-0.3,0.1-0.7,0-1.1l-10.9-59.4
				c-0.4-1.7-2-2.8-3.7-2.4c0,0,0,0,0,0c-0.4,0.1-0.8,0.2-1.1,0.5l-35.2,24.5c-1.4,0.9-3.3,0.6-4.3-0.8L681.5,229
				c-1-1.4-3-1.7-4.4-0.7l-48.5,37c-1.2,1-1.4,2.8-0.4,4.1C628.6,270,629.3,270.3,630,270.4L630,270.4z"/>
			<circle id="Elipse_8-3" class="st3" cx="661.8" cy="202.6" r="10.5"/>
		</g>
		<g id="Grupo_136">
			<path id="Trazado_311-4" class="st3" d="M900-18.1l142.4-17.2c9-1.1,17.1,6.1,18.1,16l10.3,95.6c1.1,9.9-5.3,18.8-14.3,19.9
				l-142.5,17.1c-9,1.1-17.1-6.1-18.1-16L885.7,1.8C884.7-8.1,891-17,900-18.1z"/>
			<path id="Trazado_189-4" class="st3" d="M912.9,97.2l132.3-14c1.7-0.1,3-1.6,2.9-3.3c0-0.4-0.1-0.8-0.3-1.1l-29.6-59.6
				c-0.9-1.7-3-2.3-4.7-1.4c-0.4,0.2-0.7,0.5-1,0.8l-29.9,36.6c-1.2,1.4-3.3,1.6-4.8,0.5l-23.2-18c-1.5-1.2-3.7-0.9-4.9,0.6
				l-40.2,53.9c-1,1.4-0.7,3.4,0.7,4.5C911.2,97.2,912.1,97.4,912.9,97.2L912.9,97.2z"/>
			<circle id="Elipse_8-4" class="st3" cx="926" cy="15.8" r="11.6"/>
		</g>
		<g id="Grupo_118">
			<path id="Trazado_187" class="st3" d="M726,598.9l3.7,36.2c0.1,1.1,1.1,1.9,2.2,1.8c0,0,0.1,0,0.1,0c0.4,0,0.7-0.2,1-0.4l26.2-19
				c0.9-0.6,1.2-1.9,0.5-2.8c-0.2-0.3-0.4-0.5-0.7-0.6l-29.9-17.2c-0.9-0.6-2.2-0.3-2.7,0.7c0,0,0,0.1,0,0.1
				C726.1,598,726,598.5,726,598.9z"/>
			<circle id="Elipse_7" class="st4" cx="738.4" cy="615.9" r="36.8"/>
		</g>
		<path id="Rectángulo_105" class="st5" d="M673.4,380.6L673.4,380.6c18.9,0,34.2,15.3,34.2,34.2l0,0c0,18.9-15.2,34.2-34.1,34.2
			c0,0,0,0,0,0l0,0c-18.9,0-34.2-15.3-34.2-34.1c0,0,0,0,0,0l0,0C639.2,396,654.5,380.7,673.4,380.6
			C673.4,380.6,673.4,380.6,673.4,380.6z"/>
		<path id="Rectángulo_107" class="st5" d="M627.5,887.7L627.5,887.7c12.2,0,22.2,9.9,22.2,22.2l0,0c0,12.2-9.9,22.2-22.1,22.2
			c0,0,0,0,0,0l0,0c-12.2,0-22.2-9.9-22.2-22.2l0,0C605.3,897.6,615.2,887.7,627.5,887.7C627.5,887.7,627.5,887.7,627.5,887.7z"/>
		<path id="Rectángulo_108" class="st5" d="M1017.2,526.7L1017.2,526.7c12.2,0,22.2,9.9,22.2,22.2l0,0l0,0
			c0,12.2-9.9,22.2-22.1,22.2c0,0,0,0,0,0l0,0c-12.2,0-22.2-9.9-22.2-22.2l0,0C995.1,536.6,1005,526.7,1017.2,526.7
			C1017.2,526.7,1017.2,526.7,1017.2,526.7z"/>
		<path id="Rectángulo_106" class="st3" d="M931.6,579L931.6,579c18.9,0,34.2,15.3,34.2,34.1c0,0,0,0,0,0l0,0
			c0,18.9-15.3,34.2-34.1,34.2c0,0,0,0,0,0l0,0c-18.9,0-34.2-15.3-34.2-34.2l0,0C897.4,594.3,912.7,579,931.6,579z"/>
	</g>
</g>
</svg>
