<svg xmlns="http://www.w3.org/2000/svg" width="212.939" height="158.86" viewBox="0 0 212.939 158.86">
  <g id="Grupo_239" data-name="Grupo 239" opacity="0.798">
    <path id="Trazado_196" data-name="Trazado 196" d="M504.846,373.6c.076.077.155.151.229.23C505,373.748,504.922,373.673,504.846,373.6Z" transform="translate(-294.883 -245.259)" fill="#d5d5d5"/>
    <path id="Trazado_197" data-name="Trazado 197" d="M507.244,376.377c.089.122.175.247.258.372C507.418,376.624,507.333,376.5,507.244,376.377Z" transform="translate(-296.284 -246.883)" fill="#d5d5d5"/>
    <path id="Trazado_198" data-name="Trazado 198" d="M508.082,377.6c.085.131.167.265.246.4C508.249,377.863,508.167,377.729,508.082,377.6Z" transform="translate(-296.773 -247.596)" fill="#d5d5d5"/>
    <path id="Trazado_199" data-name="Trazado 199" d="M505.481,374.247c.223.241.433.493.631.754C505.914,374.74,505.7,374.488,505.481,374.247Z" transform="translate(-295.254 -245.639)" fill="#d5d5d5"/>
    <path id="Trazado_200" data-name="Trazado 200" d="M499.928,369.789c.064.038.127.078.19.117C500.054,369.867,499.992,369.827,499.928,369.789Z" transform="translate(-292.01 -243.035)" fill="#d5d5d5"/>
    <path id="Trazado_201" data-name="Trazado 201" d="M503.738,372.553c.076.067.152.133.225.2C503.89,372.686,503.814,372.62,503.738,372.553Z" transform="translate(-294.236 -244.649)" fill="#d5d5d5"/>
    <path id="Trazado_202" data-name="Trazado 202" d="M501.269,370.637c.074.05.146.1.218.153C501.415,370.739,501.343,370.687,501.269,370.637Z" transform="translate(-292.794 -243.53)" fill="#d5d5d5"/>
    <path id="Trazado_203" data-name="Trazado 203" d="M502.541,371.56c.076.059.151.118.225.179C502.691,371.678,502.617,371.619,502.541,371.56Z" transform="translate(-293.536 -244.069)" fill="#d5d5d5"/>
    <path id="Trazado_204" data-name="Trazado 204" d="M508.826,378.83c.083.147.164.3.24.447C508.989,379.126,508.909,378.977,508.826,378.83Z" transform="translate(-297.208 -248.316)" fill="#d5d5d5"/>
    <path id="Trazado_205" data-name="Trazado 205" d="M425.5,380a10.159,10.159,0,0,1,.906,2.772c.008.043.016.085.023.128.034.21.06.423.08.636.006.059.014.116.019.175.02.263.033.527.033.793v19.974a3.38,3.38,0,0,1-3.38,3.38H369.1a3.379,3.379,0,0,1-3.377-3.313,3.378,3.378,0,0,0,3.377,3.314h54.08a3.38,3.38,0,0,0,3.38-3.38V384.5A10.118,10.118,0,0,0,425.5,380Z" transform="translate(-213.62 -248.999)" fill="#d5d5d5"/>
    <g id="Grupo_125" data-name="Grupo 125" transform="translate(158.86 47.32)">
      <path id="Trazado_206" data-name="Trazado 206" d="M429.285,212.373q0-.4-.02-.793c0-.126-.011-.252-.018-.378-.019-.331-.043-.663-.076-1,0-.012,0-.025,0-.037q-.042-.425-.1-.854c-.014-.1-.032-.2-.047-.3l-.008-.055a23.14,23.14,0,0,0-2.05-6.614c-.009-.019-.019-.038-.029-.057q-.205-.423-.428-.836c-.059-.111-.121-.221-.182-.331q-.149-.268-.3-.53c-.082-.139-.163-.278-.248-.415s-.163-.255-.246-.383q-.329-.51-.682-1c-.041-.058-.081-.116-.123-.174-.136-.185-.276-.366-.416-.547-.061-.079-.123-.157-.185-.235-.141-.176-.283-.351-.429-.522-.064-.077-.131-.151-.2-.227-.317-.365-.643-.722-.982-1.066l-.075-.079c-.109-.11-.22-.216-.331-.323-.146-.142-.292-.282-.441-.42-.091-.084-.184-.168-.277-.251q-.3-.271-.613-.531l-.139-.116q-.846-.7-1.755-1.317a10.451,10.451,0,0,0,.27-2.359c0-6.332-5.687-11.5-12.836-11.815q-.34-.016-.685-.016c-7.467,0-13.52,5.3-13.52,11.83a10.453,10.453,0,0,0,.271,2.365,23.662,23.662,0,0,0-6.881,32.034c0-.067-.012-.136-.011-.2,0-.028.007-.055.008-.083a3.58,3.58,0,0,1,.042-.444,3.351,3.351,0,0,1,1.785-2.448,28.2,28.2,0,0,0,5.983-4.04l.025-.023c.181-.162.347-.325.517-.488.356-.351.682-.7.992-1.054l0-.011a19.815,19.815,0,0,0,2.829-3.993c.079-.152.156-.3.225-.446l.035-.069a3.346,3.346,0,0,1,3.811-1.852,58.229,58.229,0,0,1,22.942,11.754,3.4,3.4,0,0,1,.957,1.358,3.115,3.115,0,0,1,.206,1.36c0,.044-.01.087-.013.13-.015.171-.034.34-.052.509a23.557,23.557,0,0,0,2.586-5.845c.021-.074.042-.147.063-.222.059-.211.116-.423.168-.636.034-.135.063-.271.094-.407q.1-.428.181-.861.05-.266.1-.534c.025-.152.05-.3.072-.457.044-.3.084-.611.117-.919.012-.112.02-.225.03-.338q.034-.364.056-.731c.007-.126.015-.252.021-.379.015-.33.024-.661.025-.995,0-.021,0-.041,0-.062C429.291,212.519,429.286,212.446,429.285,212.373Z" transform="translate(-381.971 -178.794)" fill="#d5d5d5"/>
    </g>
    <path id="Trazado_207" data-name="Trazado 207" d="M501.794,371.006q.158.113.311.23Q501.952,371.119,501.794,371.006Z" transform="translate(-293.1 -243.746)" fill="#d5d5d5"/>
    <path id="Trazado_208" data-name="Trazado 208" d="M479.786,359.655h0l7.792,3.9Z" transform="translate(-280.245 -237.116)" fill="#d5d5d5"/>
    <path id="Trazado_209" data-name="Trazado 209" d="M365.714,372.62a10.14,10.14,0,0,1,5.605-9.069l7.793-3.9h0l-7.792,3.9a10.14,10.14,0,0,0-5.605,9.069v19.974c0,.022,0,.044,0,.067,0-.022,0-.044,0-.066Z" transform="translate(-213.615 -237.115)" fill="#d5d5d5"/>
    <path id="Trazado_210" data-name="Trazado 210" d="M498.522,369.023c.2.1.394.207.585.319C498.916,369.23,498.722,369.123,498.522,369.023Z" transform="translate(-291.189 -242.587)" fill="#d5d5d5"/>
    <path id="Trazado_211" data-name="Trazado 211" d="M500.385,370.071c.124.077.247.154.368.235C500.632,370.225,500.509,370.148,500.385,370.071Z" transform="translate(-292.277 -243.2)" fill="#d5d5d5"/>
    <path id="Trazado_212" data-name="Trazado 212" d="M507.865,377.272c.03.045.061.09.09.136C507.926,377.362,507.9,377.317,507.865,377.272Z" transform="translate(-296.646 -247.406)" fill="#d5d5d5"/>
    <path id="Trazado_213" data-name="Trazado 213" d="M507,376.06c.034.044.069.087.1.132C507.068,376.147,507.033,376.1,507,376.06Z" transform="translate(-296.14 -246.698)" fill="#d5d5d5"/>
    <path id="Trazado_214" data-name="Trazado 214" d="M508.673,378.562l.064.111Z" transform="translate(-297.118 -248.159)" fill="#d5d5d5"/>
    <path id="Trazado_215" data-name="Trazado 215" d="M503.081,371.99c.093.077.183.155.273.234C503.264,372.145,503.174,372.066,503.081,371.99Z" transform="translate(-293.852 -244.32)" fill="#d5d5d5"/>
    <path id="Trazado_216" data-name="Trazado 216" d="M505.4,374.15l.035.04Z" transform="translate(-295.204 -245.582)" fill="#d5d5d5"/>
    <path id="Trazado_217" data-name="Trazado 217" d="M509.4,379.9l.019.039Z" transform="translate(-297.544 -248.944)" fill="#d5d5d5"/>
    <path id="Trazado_218" data-name="Trazado 218" d="M504.28,373.039c.081.075.158.154.235.232C504.438,373.193,504.36,373.114,504.28,373.039Z" transform="translate(-294.552 -244.933)" fill="#d5d5d5"/>
    <path id="Trazado_219" data-name="Trazado 219" d="M369.094,395.975h54.08a3.38,3.38,0,0,0,3.38-3.38V372.621c0-.266-.013-.53-.033-.793,0-.059-.013-.116-.019-.175-.02-.213-.047-.426-.08-.636-.007-.043-.015-.085-.023-.128a10.159,10.159,0,0,0-.906-2.772l-.019-.04c-.076-.151-.156-.3-.24-.447l-.064-.111c-.079-.136-.161-.27-.246-.4-.03-.046-.06-.091-.09-.136-.084-.126-.169-.25-.258-.372-.033-.044-.068-.088-.1-.132-.2-.261-.408-.513-.631-.754l-.035-.04c-.074-.079-.152-.154-.229-.23s-.155-.156-.235-.232-.15-.135-.225-.2-.18-.158-.273-.234c-.074-.061-.149-.12-.225-.179-.1-.079-.205-.155-.311-.23-.072-.052-.144-.1-.218-.153-.12-.081-.243-.159-.368-.235-.063-.039-.126-.079-.19-.117-.191-.111-.385-.219-.585-.319l-7.792-3.9a20.252,20.252,0,0,1-34.044,0l-7.793,3.9a10.14,10.14,0,0,0-5.605,9.069V392.6c0,.022,0,.044,0,.066A3.379,3.379,0,0,0,369.094,395.975Z" transform="translate(-213.615 -237.116)" fill="#d5d5d5"/>
    <g id="Grupo_126" data-name="Grupo 126" transform="translate(10.14 57.46)">
      <path id="Trazado_220" data-name="Trazado 220" d="M64.941,203.175H41.281a10.113,10.113,0,0,0-7.588,3.417,10.138,10.138,0,0,0-9.312,10.1v2.372a27.051,27.051,0,0,0,1.387,8.551l1.993,5.978v-.58h0a6.759,6.759,0,0,1,1.531-4.284q.211-.258.449-.5l6.129-6.129a6.681,6.681,0,0,1,4.907-1.986h0c10.8.341,20.368,2.655,25.6,7.761.144.141.278.289.406.442.06.072.115.147.172.222s.112.147.165.223c.081.115.156.232.228.353l.034.057a6.829,6.829,0,0,1,.909,2.844l2.373-8.305a27.034,27.034,0,0,0,1.041-7.428v-6.353A6.76,6.76,0,0,0,64.941,203.175Z" transform="translate(-24.381 -203.175)" fill="#d5d5d5"/>
    </g>
    <path id="Trazado_221" data-name="Trazado 221" d="M60.245,345.684l-12.578-3.593-2.058-3.139a1.352,1.352,0,0,0-2.05-.25L33.8,347.754,24.04,338.7a1.352,1.352,0,0,0-2.05.25l-2.057,3.138L7.354,345.684a10.139,10.139,0,0,0-7.228,8.172c0,.025-.005.049-.009.074-.034.23-.065.462-.084.7-.022.267-.033.536-.033.807v24.712a3.38,3.38,0,0,0,3.38,3.38H64.22a3.38,3.38,0,0,0,3.38-3.38V355.434A10.14,10.14,0,0,0,60.245,345.684Z" transform="translate(0 -224.666)" fill="#d5d5d5"/>
    <path id="Trazado_222" data-name="Trazado 222" d="M129.623,373.553q.141-.167.287-.329Q129.764,373.386,129.623,373.553Z" transform="translate(-75.713 -245.041)" fill="#d5d5d5"/>
    <path id="Trazado_223" data-name="Trazado 223" d="M122.2,390.229c.016-.119.032-.238.051-.356C122.235,389.991,122.219,390.11,122.2,390.229Z" transform="translate(-71.379 -254.766)" fill="#d5d5d5"/>
    <path id="Trazado_224" data-name="Trazado 224" d="M124.44,380.138a13.555,13.555,0,0,1,.84-1.673A13.5,13.5,0,0,0,124.44,380.138Z" transform="translate(-72.686 -248.103)" fill="#d5d5d5"/>
    <path id="Trazado_225" data-name="Trazado 225" d="M126.724,377.36c.1-.16.2-.319.3-.474C126.921,377.042,126.822,377.2,126.724,377.36Z" transform="translate(-74.02 -247.18)" fill="#d5d5d5"/>
    <path id="Trazado_226" data-name="Trazado 226" d="M123.795,383.31q.107-.3.229-.6Q123.9,383.009,123.795,383.31Z" transform="translate(-72.309 -250.584)" fill="#d5d5d5"/>
    <path id="Trazado_227" data-name="Trazado 227" d="M122.546,387.46q.088-.442.2-.875Q122.635,387.018,122.546,387.46Z" transform="translate(-71.58 -252.845)" fill="#d5d5d5"/>
    <path id="Trazado_228" data-name="Trazado 228" d="M123.058,385.308q.118-.434.264-.857Q123.176,384.874,123.058,385.308Z" transform="translate(-71.879 -251.599)" fill="#d5d5d5"/>
    <path id="Trazado_229" data-name="Trazado 229" d="M127.662,375.485q.276-.4.582-.783Q127.939,375.083,127.662,375.485Z" transform="translate(-74.568 -245.905)" fill="#d5d5d5"/>
    <path id="Trazado_230" data-name="Trazado 230" d="M138.842,366.338l.209-.113Z" transform="translate(-81.098 -240.953)" fill="#d5d5d5"/>
    <path id="Trazado_231" data-name="Trazado 231" d="M133.058,370.236c.079-.069.161-.136.241-.2C133.219,370.1,133.137,370.167,133.058,370.236Z" transform="translate(-77.72 -243.177)" fill="#d5d5d5"/>
    <path id="Trazado_232" data-name="Trazado 232" d="M383.028,367.508l.075.05Z" transform="translate(-223.728 -241.703)" fill="#d5d5d5"/>
    <path id="Trazado_233" data-name="Trazado 233" d="M384.716,368.657c.077.056.155.112.231.17Q384.833,368.741,384.716,368.657Z" transform="translate(-224.714 -242.374)" fill="#d5d5d5"/>
    <path id="Trazado_234" data-name="Trazado 234" d="M136.962,367.46c.053-.034.108-.065.162-.1C137.07,367.395,137.015,367.426,136.962,367.46Z" transform="translate(-80 -241.617)" fill="#d5d5d5"/>
    <path id="Trazado_235" data-name="Trazado 235" d="M134.78,368.906c.069-.052.136-.106.206-.157C134.916,368.8,134.849,368.853,134.78,368.906Z" transform="translate(-78.726 -242.427)" fill="#d5d5d5"/>
    <path id="Trazado_236" data-name="Trazado 236" d="M380.767,366.217l.194.1Z" transform="translate(-222.408 -240.948)" fill="#d5d5d5"/>
    <path id="Trazado_237" data-name="Trazado 237" d="M125.427,445.545c-.038-.025-.075-.052-.111-.078C125.353,445.494,125.389,445.52,125.427,445.545Z" transform="translate(-73.198 -287.239)" fill="#d5d5d5"/>
    <path id="Trazado_238" data-name="Trazado 238" d="M124.823,445.085c-.035-.028-.07-.058-.1-.087C124.753,445.027,124.787,445.057,124.823,445.085Z" transform="translate(-72.849 -286.965)" fill="#d5d5d5"/>
    <path id="Trazado_239" data-name="Trazado 239" d="M124.264,444.572c-.032-.032-.064-.064-.1-.1C124.2,444.508,124.232,444.54,124.264,444.572Z" transform="translate(-72.528 -286.66)" fill="#d5d5d5"/>
    <path id="Trazado_240" data-name="Trazado 240" d="M126.076,445.949c-.04-.021-.078-.044-.117-.067C126,445.9,126.036,445.928,126.076,445.949Z" transform="translate(-73.573 -287.481)" fill="#d5d5d5"/>
    <path id="Trazado_241" data-name="Trazado 241" d="M126.765,446.292c-.041-.017-.08-.036-.121-.055C126.684,446.256,126.723,446.275,126.765,446.292Z" transform="translate(-73.973 -287.688)" fill="#d5d5d5"/>
    <path id="Trazado_242" data-name="Trazado 242" d="M128.271,446.786c-.035-.008-.069-.018-.1-.026C128.2,446.768,128.235,446.779,128.271,446.786Z" transform="translate(-74.862 -287.994)" fill="#d5d5d5"/>
    <path id="Trazado_243" data-name="Trazado 243" d="M121.985,392.438c.007-.1.017-.2.026-.3C122,392.238,121.992,392.337,121.985,392.438Z" transform="translate(-71.252 -256.089)" fill="#d5d5d5"/>
    <path id="Trazado_244" data-name="Trazado 244" d="M127.493,446.572c-.04-.012-.079-.028-.119-.042C127.414,446.544,127.453,446.56,127.493,446.572Z" transform="translate(-74.4 -287.86)" fill="#d5d5d5"/>
    <path id="Trazado_245" data-name="Trazado 245" d="M123.756,444.009q-.044-.05-.086-.1Q123.712,443.958,123.756,444.009Z" transform="translate(-72.236 -286.326)" fill="#d5d5d5"/>
    <path id="Trazado_246" data-name="Trazado 246" d="M122.088,440.556c-.007-.032-.017-.064-.024-.1C122.071,440.491,122.08,440.523,122.088,440.556Z" transform="translate(-71.298 -284.313)" fill="#d5d5d5"/>
    <path id="Trazado_247" data-name="Trazado 247" d="M121.955,439.737c0-.021-.007-.042-.009-.063C121.948,439.7,121.953,439.716,121.955,439.737Z" transform="translate(-71.229 -283.855)" fill="#d5d5d5"/>
    <path id="Trazado_248" data-name="Trazado 248" d="M122.293,441.325c-.012-.037-.027-.073-.038-.11C122.266,441.252,122.28,441.288,122.293,441.325Z" transform="translate(-71.41 -284.755)" fill="#d5d5d5"/>
    <path id="Trazado_249" data-name="Trazado 249" d="M122.566,442.056c-.017-.038-.035-.075-.051-.114C122.531,441.981,122.549,442.018,122.566,442.056Z" transform="translate(-71.562 -285.18)" fill="#d5d5d5"/>
    <path id="Trazado_250" data-name="Trazado 250" d="M123.3,443.4c-.025-.036-.051-.072-.075-.109C123.25,443.328,123.275,443.364,123.3,443.4Z" transform="translate(-71.977 -285.968)" fill="#d5d5d5"/>
    <path id="Trazado_251" data-name="Trazado 251" d="M122.9,442.747c-.022-.037-.043-.074-.063-.112C122.86,442.673,122.882,442.71,122.9,442.747Z" transform="translate(-71.751 -285.585)" fill="#d5d5d5"/>
    <path id="Trazado_252" data-name="Trazado 252" d="M386.586,370.111c.094.079.185.16.277.241C386.771,370.271,386.68,370.19,386.586,370.111Z" transform="translate(-225.807 -243.223)" fill="#d5d5d5"/>
    <g id="Grupo_127" data-name="Grupo 127" transform="translate(57.833)">
      <path id="Trazado_253" data-name="Trazado 253" d="M239.662,167.4c-1.049-6.268-3.872-25.04-6.339-58.449-2.006-27.176-19.672-43.94-43.94-43.94-.41,0-.818.006-1.225.015l-.269.009c-.311.009-.622.02-.931.034l-.369.02c-.276.015-.551.032-.825.051l-.4.03c-.266.021-.53.044-.794.069l-.193.017c-.039,0-.077.01-.116.014-21.6,2.2-36.961,18.454-38.823,43.68-2.466,33.409-5.29,52.181-6.339,58.449a3.371,3.371,0,0,0,1.812,3.574,123.474,123.474,0,0,0,22.443,8.593l5.1-2.25a6.76,6.76,0,0,0,4.029-6.184V158.358a34.8,34.8,0,0,1-12.744-13.571l-.008-.016q-.347-.657-.667-1.329c-.023-.047-.045-.1-.067-.143q-.29-.616-.558-1.243c-.038-.089-.073-.178-.111-.268-.159-.383-.314-.769-.461-1.16-.048-.127-.092-.257-.139-.385-.13-.358-.257-.717-.376-1.08-.054-.165-.1-.331-.154-.5-.1-.333-.206-.666-.3-1-.057-.2-.106-.407-.159-.61-.079-.307-.161-.612-.232-.922-.055-.239-.1-.48-.153-.721-.059-.28-.121-.559-.173-.841s-.093-.558-.138-.837c-.04-.25-.085-.5-.12-.751-.045-.325-.079-.652-.115-.979-.023-.211-.052-.421-.072-.633-.037-.4-.062-.809-.086-1.214-.008-.14-.022-.279-.028-.419q-.039-.826-.039-1.66v-1.919c0-.192.011-.382.027-.571a6.58,6.58,0,0,1,2.793-4.916l.039-.027.014-.01q.6-.41,1.17-.824l.149-.108q1.158-.843,2.21-1.7l.087-.07A46.414,46.414,0,0,0,172.125,106.7a39.2,39.2,0,0,0,2.038-3.6,6.713,6.713,0,0,1,6.014-3.691,6.944,6.944,0,0,1,1.083.078c20.9,3.16,33.087,11.507,38.514,16.227a10.027,10.027,0,0,1,3.408,7.588v5.93a33.784,33.784,0,0,1-16.9,29.275v12.626a6.76,6.76,0,0,0,4.029,6.184l5.1,2.252.467-.128c.29-.081.577-.163.864-.246s.555-.159.829-.24.563-.168.843-.253.537-.163.8-.245.551-.173.824-.26.522-.166.779-.249.531-.175.795-.263.509-.169.76-.255.511-.176.765-.264.495-.171.737-.257.493-.176.738-.265.479-.172.713-.259.47-.175.7-.262.465-.174.692-.26.448-.173.67-.259.451-.174.671-.261l.626-.25c.22-.088.441-.176.656-.263l.579-.238c.215-.089.433-.178.642-.266l.526-.223c.212-.09.425-.18.631-.269l.464-.2c.211-.092.425-.185.629-.275l.388-.173c.215-.1.431-.193.637-.286l.283-.13c.23-.105.459-.21.677-.311l.115-.054c1.159-.541,2.148-1.026,2.935-1.425a3.371,3.371,0,0,0,1.812-3.574Z" transform="translate(-139.057 -65.015)" fill="#d5d5d5"/>
    </g>
    <path id="Trazado_254" data-name="Trazado 254" d="M393.688,378.5a13.606,13.606,0,0,1,.837,1.672A13.514,13.514,0,0,0,393.688,378.5Z" transform="translate(-229.955 -248.124)" fill="#d5d5d5"/>
    <path id="Trazado_255" data-name="Trazado 255" d="M392.063,376.014q.338.469.634.965Q392.4,376.483,392.063,376.014Z" transform="translate(-229.006 -246.671)" fill="#d5d5d5"/>
    <path id="Trazado_256" data-name="Trazado 256" d="M131.409,371.654c-.1.1-.2.2-.3.3C131.21,371.853,131.308,371.752,131.409,371.654Z" transform="translate(-76.583 -244.124)" fill="#d5d5d5"/>
    <path id="Trazado_257" data-name="Trazado 257" d="M391.171,374.833c.111.141.221.282.326.427C391.391,375.115,391.282,374.974,391.171,374.833Z" transform="translate(-228.485 -245.981)" fill="#d5d5d5"/>
    <path id="Trazado_258" data-name="Trazado 258" d="M397.8,389.894c.018.112.033.224.048.336C397.837,390.118,397.822,390.006,397.8,389.894Z" transform="translate(-232.359 -254.778)" fill="#d5d5d5"/>
    <path id="Trazado_259" data-name="Trazado 259" d="M395.724,382.578q.134.321.251.648Q395.858,382.9,395.724,382.578Z" transform="translate(-231.144 -250.505)" fill="#d5d5d5"/>
    <path id="Trazado_260" data-name="Trazado 260" d="M397.39,387.74c.027.119.049.239.072.358C397.438,387.979,397.417,387.858,397.39,387.74Z" transform="translate(-232.117 -253.52)" fill="#d5d5d5"/>
    <path id="Trazado_261" data-name="Trazado 261" d="M398.084,392.18c.008.091.017.182.024.274C398.1,392.362,398.092,392.271,398.084,392.18Z" transform="translate(-232.523 -256.114)" fill="#d5d5d5"/>
    <path id="Trazado_262" data-name="Trazado 262" d="M396.454,384.511q.168.492.3,1Q396.623,385,396.454,384.511Z" transform="translate(-231.571 -251.634)" fill="#d5d5d5"/>
    <path id="Trazado_263" data-name="Trazado 263" d="M388.181,371.545c.1.094.194.188.288.284Q388.328,371.685,388.181,371.545Z" transform="translate(-226.738 -244.061)" fill="#d5d5d5"/>
    <path id="Trazado_264" data-name="Trazado 264" d="M389.568,372.963q.255.276.494.566Q389.823,373.239,389.568,372.963Z" transform="translate(-227.548 -244.889)" fill="#d5d5d5"/>
    <rect id="Rectángulo_104" data-name="Rectángulo 104" width="67.599" transform="translate(74.36 158.859)" fill="#d5d5d5"/>
    <path id="Trazado_265" data-name="Trazado 265" d="M129.174,446.938a3.377,3.377,0,0,0,.357.019,3.382,3.382,0,0,1-.346-.018Z" transform="translate(-75.451 -288.098)" fill="#d5d5d5"/>
    <path id="Trazado_266" data-name="Trazado 266" d="M122.721,442.39c-.03-.057-.057-.116-.084-.175C122.664,442.274,122.691,442.333,122.721,442.39Z" transform="translate(-71.633 -285.339)" fill="#d5d5d5"/>
    <path id="Trazado_267" data-name="Trazado 267" d="M123.089,443.066c-.034-.052-.066-.106-.1-.161C123.023,442.959,123.055,443.013,123.089,443.066Z" transform="translate(-71.84 -285.742)" fill="#d5d5d5"/>
    <path id="Trazado_268" data-name="Trazado 268" d="M393.441,392.84v0c.02.3.033.6.033.908v18.231a3.38,3.38,0,0,1-3.38,3.38h0a3.38,3.38,0,0,0,3.38-3.38V393.746C393.474,393.442,393.461,393.14,393.441,392.84Z" transform="translate(-227.856 -256.498)" fill="#d5d5d5"/>
    <path id="Trazado_269" data-name="Trazado 269" d="M128.732,446.871q-.16-.017-.314-.048Q128.573,446.854,128.732,446.871Z" transform="translate(-75.01 -288.031)" fill="#d5d5d5"/>
    <path id="Trazado_270" data-name="Trazado 270" d="M127.871,446.685c-.07-.017-.141-.033-.21-.054C127.73,446.652,127.8,446.668,127.871,446.685Z" transform="translate(-74.567 -287.919)" fill="#d5d5d5"/>
    <path id="Trazado_271" data-name="Trazado 271" d="M397.988,391.312q-.027-.305-.067-.607v0q.041.306.068.615Z" transform="translate(-232.427 -255.25)" fill="#d5d5d5"/>
    <path id="Trazado_272" data-name="Trazado 272" d="M122.416,441.672c-.026-.063-.048-.128-.07-.192C122.368,441.544,122.391,441.609,122.416,441.672Z" transform="translate(-71.463 -284.91)" fill="#d5d5d5"/>
    <path id="Trazado_273" data-name="Trazado 273" d="M122.177,440.91c-.022-.071-.039-.144-.056-.217C122.138,440.766,122.155,440.839,122.177,440.91Z" transform="translate(-71.331 -284.45)" fill="#d5d5d5"/>
    <path id="Trazado_274" data-name="Trazado 274" d="M125.74,445.749c-.053-.03-.105-.061-.156-.094C125.635,445.688,125.687,445.719,125.74,445.749Z" transform="translate(-73.354 -287.349)" fill="#d5d5d5"/>
    <path id="Trazado_275" data-name="Trazado 275" d="M397.663,389.135c-.029-.176-.062-.351-.1-.525l0-.01c.036.178.071.357.1.538Z" transform="translate(-232.219 -254.023)" fill="#d5d5d5"/>
    <path id="Trazado_276" data-name="Trazado 276" d="M124.532,444.828c-.046-.039-.09-.079-.133-.121C124.441,444.749,124.486,444.789,124.532,444.828Z" transform="translate(-72.661 -286.795)" fill="#d5d5d5"/>
    <path id="Trazado_277" data-name="Trazado 277" d="M125.113,445.316c-.049-.035-.1-.07-.144-.108C125.016,445.245,125.064,445.281,125.113,445.316Z" transform="translate(-72.995 -287.087)" fill="#d5d5d5"/>
    <path id="Trazado_278" data-name="Trazado 278" d="M385.271,369.065q.28.211.547.435Q385.551,369.276,385.271,369.065Z" transform="translate(-225.039 -242.612)" fill="#d5d5d5"/>
    <path id="Trazado_279" data-name="Trazado 279" d="M121.9,393.758c0-.3.013-.6.033-.9v.008c-.018.277-.03.556-.031.837,0,.018,0,.036,0,.054v18.231a3.392,3.392,0,0,0,.017.34,3.392,3.392,0,0,1-.017-.34Z" transform="translate(-71.205 -256.51)" fill="#d5d5d5"/>
    <path id="Trazado_280" data-name="Trazado 280" d="M127.117,446.436c-.062-.021-.123-.042-.183-.067C126.994,446.394,127.055,446.415,127.117,446.436Z" transform="translate(-74.143 -287.766)" fill="#d5d5d5"/>
    <path id="Trazado_281" data-name="Trazado 281" d="M350.151,352.645c-.261-.136-.526-.268-.8-.388l-21-9.276h0l21,9.276C349.624,352.377,349.889,352.508,350.151,352.645Z" transform="translate(-191.791 -227.376)" fill="#d5d5d5"/>
    <path id="Trazado_282" data-name="Trazado 282" d="M161.15,342.981h0l-21,9.276c-.274.121-.541.254-.8.391.263-.138.53-.27.8-.391Z" transform="translate(-81.391 -227.376)" fill="#d5d5d5"/>
    <path id="Trazado_283" data-name="Trazado 283" d="M123.516,443.7q-.057-.072-.11-.146C123.441,443.6,123.478,443.652,123.516,443.7Z" transform="translate(-72.082 -286.121)" fill="#d5d5d5"/>
    <path id="Trazado_284" data-name="Trazado 284" d="M124,444.288c-.042-.044-.082-.088-.121-.134C123.916,444.2,123.956,444.244,124,444.288Z" transform="translate(-72.357 -286.472)" fill="#d5d5d5"/>
    <path id="Trazado_285" data-name="Trazado 285" d="M126.408,446.124c-.057-.026-.113-.052-.168-.081C126.295,446.072,126.351,446.1,126.408,446.124Z" transform="translate(-73.737 -287.575)" fill="#d5d5d5"/>
    <path id="Trazado_286" data-name="Trazado 286" d="M131.827,370.993q.25-.241.512-.471Q132.076,370.752,131.827,370.993Z" transform="translate(-77.001 -243.463)" fill="#d5d5d5"/>
    <path id="Trazado_287" data-name="Trazado 287" d="M122.008,440.088c-.017-.087-.03-.175-.04-.263C121.978,439.914,121.991,440,122.008,440.088Z" transform="translate(-71.242 -283.943)" fill="#d5d5d5"/>
    <path id="Trazado_288" data-name="Trazado 288" d="M390.755,374.323c.058.07.116.141.173.212C390.871,374.464,390.813,374.393,390.755,374.323Z" transform="translate(-228.242 -245.683)" fill="#d5d5d5"/>
    <path id="Trazado_289" data-name="Trazado 289" d="M391.955,375.86l.045.064Z" transform="translate(-228.943 -246.581)" fill="#d5d5d5"/>
    <path id="Trazado_290" data-name="Trazado 290" d="M130.314,372.729c.108-.12.219-.237.332-.353C130.534,372.492,130.422,372.609,130.314,372.729Z" transform="translate(-76.117 -244.546)" fill="#d5d5d5"/>
    <path id="Trazado_291" data-name="Trazado 291" d="M135.275,368.077q.342-.249.7-.479Q135.617,367.827,135.275,368.077Z" transform="translate(-79.015 -241.755)" fill="#d5d5d5"/>
    <path id="Trazado_292" data-name="Trazado 292" d="M137.351,366.856q.3-.188.62-.36Q137.655,366.668,137.351,366.856Z" transform="translate(-80.227 -241.111)" fill="#d5d5d5"/>
    <path id="Trazado_293" data-name="Trazado 293" d="M387.252,370.69c.131.116.26.235.386.356C387.512,370.925,387.383,370.806,387.252,370.69Z" transform="translate(-226.196 -243.561)" fill="#d5d5d5"/>
    <path id="Trazado_294" data-name="Trazado 294" d="M383.209,367.628c.214.136.422.28.627.428C383.631,367.908,383.423,367.765,383.209,367.628Z" transform="translate(-223.834 -241.773)" fill="#d5d5d5"/>
    <path id="Trazado_295" data-name="Trazado 295" d="M129.062,374.3c.077-.1.154-.192.233-.286C129.216,374.109,129.139,374.2,129.062,374.3Z" transform="translate(-75.386 -245.503)" fill="#d5d5d5"/>
    <path id="Trazado_296" data-name="Trazado 296" d="M388.874,372.227c.1.1.193.2.289.306C389.067,372.43,388.972,372.327,388.874,372.227Z" transform="translate(-227.143 -244.459)" fill="#d5d5d5"/>
    <path id="Trazado_297" data-name="Trazado 297" d="M381.233,366.466c.254.138.5.281.747.433C381.737,366.746,381.487,366.6,381.233,366.466Z" transform="translate(-222.68 -241.094)" fill="#d5d5d5"/>
    <path id="Trazado_298" data-name="Trazado 298" d="M133.638,369.5q.233-.194.475-.377Q133.871,369.309,133.638,369.5Z" transform="translate(-78.059 -242.648)" fill="#d5d5d5"/>
    <path id="Trazado_299" data-name="Trazado 299" d="M396.378,384.286c-.017-.049-.032-.1-.049-.146l0-.005c.018.052.035.1.053.156Z" transform="translate(-231.496 -251.414)" fill="#d5d5d5"/>
    <path id="Trazado_300" data-name="Trazado 300" d="M122.415,388.7c-.032.157-.062.314-.088.473l0,.011c.027-.166.059-.329.091-.493Z" transform="translate(-71.451 -254.074)" fill="#d5d5d5"/>
    <path id="Trazado_301" data-name="Trazado 301" d="M123.038,386.542l.008-.031Z" transform="translate(-71.867 -252.802)" fill="#d5d5d5"/>
    <path id="Trazado_302" data-name="Trazado 302" d="M122.11,390.742c-.025.184-.044.369-.061.555l0,.018c.017-.2.039-.391.065-.586Z" transform="translate(-71.288 -255.267)" fill="#d5d5d5"/>
    <path id="Trazado_303" data-name="Trazado 303" d="M397.262,387.252c-.026-.113-.059-.224-.088-.336l0-.005c.03.115.063.229.09.345Z" transform="translate(-231.991 -253.035)" fill="#d5d5d5"/>
    <path id="Trazado_304" data-name="Trazado 304" d="M393.588,378.334l.042.069Z" transform="translate(-229.897 -248.026)" fill="#d5d5d5"/>
    <path id="Trazado_305" data-name="Trazado 305" d="M124.345,382.582c.013-.032.026-.062.04-.094C124.371,382.519,124.358,382.55,124.345,382.582Z" transform="translate(-72.63 -250.452)" fill="#d5d5d5"/>
    <path id="Trazado_306" data-name="Trazado 306" d="M126.46,378.209l.11-.183Z" transform="translate(-73.866 -247.846)" fill="#d5d5d5"/>
    <path id="Trazado_307" data-name="Trazado 307" d="M127.45,376.71c.028-.042.059-.083.088-.126C127.509,376.626,127.478,376.667,127.45,376.71Z" transform="translate(-74.444 -247.004)" fill="#d5d5d5"/>
    <path id="Trazado_308" data-name="Trazado 308" d="M395.708,382.538l0-.005-.005-.012.01.024Z" transform="translate(-231.131 -250.472)" fill="#d5d5d5"/>
    <path id="Trazado_309" data-name="Trazado 309" d="M123.731,384.159c-.012.034-.022.068-.035.1l0,.014c.015-.042.028-.084.043-.126Z" transform="translate(-72.249 -251.423)" fill="#d5d5d5"/>
    <path id="Trazado_310" data-name="Trazado 310" d="M236.824,382.855V364.624c0-.3-.013-.607-.033-.908-.006-.091-.016-.183-.024-.274q-.027-.309-.068-.615c-.015-.112-.03-.224-.048-.336-.029-.181-.064-.359-.1-.538-.024-.119-.045-.24-.072-.358s-.062-.235-.093-.354c-.085-.334-.185-.663-.3-.989-.017-.052-.035-.1-.053-.156q-.117-.328-.251-.648l-.01-.024a13.606,13.606,0,0,0-.837-1.672l-.048-.081a9.745,9.745,0,0,0-.616-.938c-.02-.026-.037-.053-.056-.079-.105-.145-.215-.287-.326-.427-.057-.072-.115-.142-.173-.212q-.238-.289-.494-.566c-.1-.1-.19-.206-.289-.306s-.191-.19-.288-.284c-.126-.121-.255-.239-.386-.356-.091-.081-.183-.162-.277-.241q-.267-.225-.547-.435c-.076-.057-.153-.114-.231-.17-.2-.148-.413-.292-.627-.428l-.075-.05c-.243-.153-.493-.3-.747-.433-.121-.066-.245-.13-.368-.193-.23-.117-.462-.227-.7-.331l-20.927-9.243a30.379,30.379,0,0,1-56.8,0l-21,9.276c-.275.121-.542.254-.8.391l-.209.113q-.316.172-.62.36c-.054.033-.109.065-.162.1q-.36.229-.7.479c-.078.057-.154.118-.231.176-.153.115-.3.235-.45.358-.081.067-.162.134-.241.2q-.263.229-.512.471c-.1.1-.2.2-.3.3s-.224.233-.332.353-.193.218-.287.329-.168.2-.25.307c-.208.259-.4.53-.593.8-.02.029-.041.057-.061.086-.1.156-.2.314-.3.474-.076.124-.15.25-.224.377a13.263,13.263,0,0,0-.733,1.5c-.011.026-.022.052-.032.077q-.121.3-.229.6c-.015.042-.028.084-.043.126q-.145.423-.264.857l-.008.031q-.116.432-.2.875c-.032.163-.065.327-.092.493-.019.118-.035.237-.051.356-.026.194-.047.389-.065.586-.009.1-.019.2-.026.3-.02.3-.033.6-.033.9v18.231a3.4,3.4,0,0,0,.017.34c0,.021.007.042.009.063.01.089.023.177.04.263.007.033.016.065.024.1.017.073.034.146.056.217.011.037.025.073.038.11.022.064.044.129.07.192.016.038.034.076.051.114.027.059.054.118.084.175.02.038.042.075.063.112.031.055.063.108.1.16.024.037.049.073.075.109s.072.1.11.146.057.07.086.1.08.09.121.134.063.064.1.1.088.081.133.121.069.059.1.087.1.073.144.108.074.053.111.078.1.064.156.094.077.046.117.067.111.055.168.081c.04.019.079.038.121.055.06.025.121.046.183.067.04.014.079.03.119.042.069.021.14.037.21.054.035.008.069.019.1.026q.155.031.314.048l.011,0a3.4,3.4,0,0,0,.346.017H233.444A3.38,3.38,0,0,0,236.824,382.855Z" transform="translate(-71.205 -227.376)" fill="#d5d5d5"/>
  </g>
</svg>
