<svg xmlns="http://www.w3.org/2000/svg" xmlns:xlink="http://www.w3.org/1999/xlink" width="165.723" height="120.369" viewBox="0 0 165.723 120.369">
  <defs>
    <linearGradient id="linear-gradient" x1="0.221" y1="-0.245" x2="0.192" y2="1.199" gradientUnits="objectBoundingBox">
      <stop offset="0" stop-color="#ff40f0"/>
      <stop offset="0.488" stop-color="#a764eb"/>
      <stop offset="1" stop-color="#00bff8"/>
    </linearGradient>
  </defs>
  <g id="handshake" transform="translate(0 -70.061)">
    <g id="Grupo_171" data-name="Grupo 171" transform="translate(50.835 70.199)">
      <g id="Grupo_170" data-name="Grupo 170">
        <path id="Trazado_335" data-name="Trazado 335" d="M246.565,86.315a3.425,3.425,0,0,1-1.726.794c-13.879,2.113-23.885-1.181-31.908-3.832-4.937-1.623-9.191-3.031-13.493-3.031-7.257,0-12.878,3.694-18.312,7.264-1.264.829-2.493,1.637-3.708,2.375L159.423,107.88a8.083,8.083,0,0,0,5.711,13.8H167.9a8,8,0,0,0,5.089-1.8c1.319-1.077,2.838-2.341,4.461-3.7,8.845-7.4,15.992-13.2,20.778-15a3.378,3.378,0,0,1,1.215-.221,3.445,3.445,0,0,1,2.258.843l49.9,43.247,20.342-8.065v-66.5Z" transform="translate(-157.053 -70.488)" fill="url(#linear-gradient)"/>
      </g>
    </g>
    <g id="Grupo_173" data-name="Grupo 173" transform="translate(20.715 142.102)">
      <g id="Grupo_172" data-name="Grupo 172">
        <path id="Trazado_336" data-name="Trazado 336" d="M74.517,292.632a6.738,6.738,0,0,0-5.614,3l-3.77,5.655A6.735,6.735,0,0,0,64,305.034V306.6a6.747,6.747,0,0,0,12.36,3.743l3.77-5.655a6.735,6.735,0,0,0,1.133-3.743v-1.568A6.743,6.743,0,0,0,74.517,292.632Z" transform="translate(-64 -292.632)" fill="url(#linear-gradient)"/>
      </g>
    </g>
    <g id="Grupo_175" data-name="Grupo 175" transform="translate(31.073 149.007)">
      <g id="Grupo_174" data-name="Grupo 174">
        <path id="Trazado_337" data-name="Trazado 337" d="M109.969,313.965h-.235a6.753,6.753,0,0,0-5.4,2.7l-6.981,9.315A6.729,6.729,0,0,0,96,330.027v1.36a6.743,6.743,0,0,0,6.746,6.746h.235a6.753,6.753,0,0,0,5.4-2.7l6.981-9.315a6.729,6.729,0,0,0,1.353-4.046v-1.36A6.743,6.743,0,0,0,109.969,313.965Z" transform="translate(-96 -313.965)" fill="url(#linear-gradient)"/>
      </g>
    </g>
    <g id="Grupo_177" data-name="Grupo 177" transform="translate(44.883 155.913)">
      <g id="Grupo_176" data-name="Grupo 176">
        <path id="Trazado_338" data-name="Trazado 338" d="M152.636,335.3H152.4A6.753,6.753,0,0,0,147,338l-6.981,9.315a6.728,6.728,0,0,0-1.353,4.046v1.36a6.743,6.743,0,0,0,6.746,6.746h.235a6.753,6.753,0,0,0,5.4-2.7l6.981-9.315a6.728,6.728,0,0,0,1.353-4.046v-1.36A6.743,6.743,0,0,0,152.636,335.3Z" transform="translate(-138.667 -335.299)" fill="url(#linear-gradient)"/>
      </g>
    </g>
    <g id="Grupo_179" data-name="Grupo 179" transform="translate(58.694 162.818)">
      <g id="Grupo_178" data-name="Grupo 178">
        <path id="Trazado_339" data-name="Trazado 339" d="M195.3,356.632h-.235a6.753,6.753,0,0,0-5.4,2.7l-6.981,9.315a6.729,6.729,0,0,0-1.353,4.046v1.36a6.743,6.743,0,0,0,6.746,6.746h.235a6.753,6.753,0,0,0,5.4-2.7l6.981-9.315a6.737,6.737,0,0,0,1.346-4.046v-1.36h.007A6.743,6.743,0,0,0,195.3,356.632Z" transform="translate(-181.334 -356.632)" fill="url(#linear-gradient)"/>
      </g>
    </g>
    <g id="Grupo_181" data-name="Grupo 181" transform="translate(79.14 178.099)">
      <g id="Grupo_180" data-name="Grupo 180">
        <path id="Trazado_340" data-name="Trazado 340" d="M255.722,409.167l-6.249-5.324c-.207.325-.3.711-.532,1.022l-4.44,5.918,4.647,4.309a3.482,3.482,0,0,0,4.965.083C255.832,413.455,256.516,410.161,255.722,409.167Z" transform="translate(-244.501 -403.843)" fill="url(#linear-gradient)"/>
      </g>
    </g>
    <g id="Grupo_183" data-name="Grupo 183" transform="translate(0 70.061)" opacity="0.8">
      <g id="Grupo_182" data-name="Grupo 182">
        <path id="Trazado_341" data-name="Trazado 341" d="M142.929,152.232,92.646,108.205c-4.426,2.472-11.58,8.452-16.987,12.975-1.643,1.381-3.183,2.665-4.523,3.756a14.778,14.778,0,0,1-9.453,3.356H58.922a14.989,14.989,0,0,1-10.6-25.584L67.6,83.7c.988-.6,1.989-1.257,3-1.92-10.827-2.21-23.132-2.362-36.88-.2A24.175,24.175,0,0,1,14.384,76.3L0,70.061v66.627l17.953,7.464,1.92-2.879A13.587,13.587,0,0,1,43.137,142.3a12.155,12.155,0,0,1,1.664-.2,13.789,13.789,0,0,1,12.132,7.105,12.619,12.619,0,0,1,1.678-.2,13.789,13.789,0,0,1,12.132,7.105,13.592,13.592,0,0,1,1.678-.2h.242a13.668,13.668,0,0,1,13.651,13.651v1.347l8.666,7.368c.007.014.021.021.035.035l3.3,2.8a11.317,11.317,0,0,0,6.995,2.417,5.168,5.168,0,0,0,3.308-9.143L77.193,148.206a3.451,3.451,0,1,1,4.426-5.3L120.44,175.26a5.958,5.958,0,0,0,3.8,1.367h1.015a5.953,5.953,0,0,0,3.929-10.413L91,134.4a3.456,3.456,0,0,1,4.426-5.31L133.484,160.8c.062.048.124.1.18.152l.566.47a5.985,5.985,0,0,0,3.846,1.395H139a6.03,6.03,0,0,0,3.928-10.585Z" transform="translate(0 -70.061)" fill="url(#linear-gradient)"/>
      </g>
    </g>
  </g>
</svg>
