<svg xmlns="http://www.w3.org/2000/svg" width="94.184" height="113.226" viewBox="0 0 94.184 113.226">
  <g id="Group_225" data-name="Group 225" transform="translate(-232.379 -5685.774)">
    <path id="Path_343" data-name="Path 343" d="M298.755,396.734a10.212,10.212,0,1,1,10.2-10.22v.008A10.22,10.22,0,0,1,298.755,396.734Zm0-16.71a6.5,6.5,0,1,0,6.5,6.5A6.5,6.5,0,0,0,298.755,380.024Z" transform="translate(-19.375 5346.298)" fill="#d9d9d9"/>
    <path id="Path_344" data-name="Path 344" d="M258.075,379.578A33.735,33.735,0,1,1,291.8,345.834v.008A33.774,33.774,0,0,1,258.075,379.578Zm0-63.749a29.99,29.99,0,1,0,29.99,29.99A29.99,29.99,0,0,0,258.075,315.829Z" transform="translate(21.461 5387.132)" fill="#d9d9d9"/>
    <path id="Path_345" data-name="Path 345" d="M278.985,387.744A21.139,21.139,0,1,1,300.116,366.6v.015A21.162,21.162,0,0,1,278.985,387.744Zm0-38.557A17.425,17.425,0,1,0,296.4,366.62v-.008A17.44,17.44,0,0,0,278.985,349.187Z" transform="translate(0.148 5365.917)" fill="#d9d9d9"/>
    <path id="Path_346" data-name="Path 346" d="M234.58,369.3a47.093,47.093,0,1,1,47.092-47.093h0A47.146,47.146,0,0,1,234.58,369.3Zm0-90.471a43.378,43.378,0,1,0,43.378,43.378h0A43.432,43.432,0,0,0,234.58,278.829Z" transform="translate(44.891 5410.659)" fill="#d9d9d9"/>
    <path id="Path_347" data-name="Path 347" d="M312.872,404.788v66.025c18.04-.039,32.743-13.842,34-30.436C348.268,422.082,332.9,404.957,312.872,404.788Z" transform="translate(-34.855 5328.187)" fill="#d9d9d9" fill-rule="evenodd" opacity="0.5" style="isolation: isolate"/>
  </g>
</svg>
