<svg xmlns="http://www.w3.org/2000/svg" width="95.141" height="41.977" viewBox="0 0 95.141 41.977">
  <g id="Capa_1-2" data-name="Capa 1-2" transform="translate(-187.488 -275.115)">
    <path id="Trazado_145" data-name="Trazado 145" d="M292.324,383.882a3.786,3.786,0,1,1,3.783-3.789v0A3.789,3.789,0,0,1,292.324,383.882Zm0-6.2a2.409,2.409,0,1,0,2.409,2.409A2.409,2.409,0,0,0,292.324,377.687Z" transform="translate(-87.411 -87.539)" fill="#00ceff"/>
    <path id="Trazado_146" data-name="Trazado 146" d="M236.842,337.121a12.507,12.507,0,1,1,12.5-12.51v0A12.521,12.521,0,0,1,236.842,337.121Zm0-23.634a11.119,11.119,0,1,0,11.119,11.119A11.118,11.118,0,0,0,236.842,313.487Z" transform="translate(-31.872 -32)" fill="#00ceff"/>
    <path id="Trazado_147" data-name="Trazado 147" d="M265.678,361.139a7.837,7.837,0,1,1,7.834-7.84v.006A7.846,7.846,0,0,1,265.678,361.139Zm0-14.294a6.46,6.46,0,1,0,6.457,6.463v0A6.466,6.466,0,0,0,265.678,346.845Z" transform="translate(-60.856 -60.857)" fill="#00ceff"/>
    <path id="Trazado_148" data-name="Trazado 148" d="M204.947,310.033a17.459,17.459,0,1,1,17.459-17.459h0A17.479,17.479,0,0,1,204.947,310.033Zm0-33.541a16.082,16.082,0,1,0,16.082,16.082h0A16.1,16.1,0,0,0,204.947,276.492Z" transform="translate(0 0)" fill="#00ceff"/>
    <path id="Trazado_149" data-name="Trazado 149" d="M312.872,404.788v24.478a12.57,12.57,0,0,0,12.607-11.284C325.995,411.2,320.3,404.851,312.872,404.788Z" transform="translate(-108.464 -112.174)" fill="#00ceff" fill-rule="evenodd" opacity="0.5" style="isolation: isolate"/>
    <path id="Trazado_150" data-name="Trazado 150" d="M498.048,312.251v9.123a3.786,3.786,0,0,1-1.229,2.794,3.894,3.894,0,0,1-2.566.918,3.648,3.648,0,0,1-2.5-.918,3.786,3.786,0,0,1-1.229-2.794v-9.123a3.786,3.786,0,0,1,1.229-2.794,3.367,3.367,0,0,1,2.5-1,3.452,3.452,0,0,1,2.566,1A3.786,3.786,0,0,1,498.048,312.251Zm-.687,0a2.987,2.987,0,0,0-1-2.252,3.1,3.1,0,0,0-2.107-.832,2.891,2.891,0,0,0-2.044.832,2.987,2.987,0,0,0-1,2.252v9.123a2.982,2.982,0,0,0,1,2.252,2.8,2.8,0,0,0,2.044.753,2.985,2.985,0,0,0,3.1-2.86c0-.048,0-.1,0-.145Zm-1.043,0v9.123a1.791,1.791,0,0,1-.73,1.46,1.95,1.95,0,0,1-1.334.507,2.047,2.047,0,0,1-1.357-.482,1.976,1.976,0,0,1-.644-1.46v-9.123a1.979,1.979,0,0,1,.644-1.48,2.044,2.044,0,0,1,1.357-.479,1.947,1.947,0,0,1,1.334.479,1.793,1.793,0,0,1,.73,1.454Zm-.77,0a1.169,1.169,0,0,0-.419-.918,1.262,1.262,0,0,0-.875-.311,1.285,1.285,0,0,0-.9.311,1.166,1.166,0,0,0-.416.918v9.123a1.157,1.157,0,0,0,.416.918,1.275,1.275,0,0,0,.9.314,1.252,1.252,0,0,0,.875-.314,1.16,1.16,0,0,0,.419-.918Z" transform="translate(-262.14 -28.84)" fill="#00ceff"/>
    <path id="Trazado_151" data-name="Trazado 151" d="M588.561,316.9a9.441,9.441,0,0,1-1.731,5.485,7.272,7.272,0,0,1-2.668,2.232,6.59,6.59,0,0,1-.753.285v-2.016a4.322,4.322,0,0,1-1.876.459v-15.11a6.5,6.5,0,0,1,1.876.285,6.818,6.818,0,0,1,3.421,2.523A10.54,10.54,0,0,1,588.561,316.9Zm-.75,0a9.56,9.56,0,0,0-1.585-5.38,6.3,6.3,0,0,0-2.817-2.19,4.851,4.851,0,0,0-1.126-.285V322.5a2.942,2.942,0,0,0,1.126-.459V310.567a8.453,8.453,0,0,1,.753.456,5.553,5.553,0,0,1,1.14,1.169,8.447,8.447,0,0,1,1.377,4.712,7.322,7.322,0,0,1-1.377,4.359,5.551,5.551,0,0,1-1.14,1.169v1.334c.354,0,1.688-1.357,2.064-1.836A8.6,8.6,0,0,0,587.812,316.9Zm-3.649,4.561a3.2,3.2,0,0,0,.542-.624,6.6,6.6,0,0,0,1.243-3.937,7.753,7.753,0,0,0-1.229-4.276,3.134,3.134,0,0,0-.542-.627Z" transform="translate(-340.871 -28.656)" fill="#00ceff"/>
    <path id="Trazado_152" data-name="Trazado 152" d="M671.973,316.9a9.463,9.463,0,0,1-1.731,5.485,7.305,7.305,0,0,1-2.671,2.232,6.339,6.339,0,0,1-.75.285v-2.016a4.322,4.322,0,0,1-1.882.459v-15.11a6.505,6.505,0,0,1,1.876.285,6.818,6.818,0,0,1,3.421,2.523A10.522,10.522,0,0,1,671.973,316.9Zm-.75,0a9.56,9.56,0,0,0-1.585-5.38,6.3,6.3,0,0,0-2.817-2.19,4.848,4.848,0,0,0-1.126-.285V322.5a2.942,2.942,0,0,0,1.126-.459V310.567a8.457,8.457,0,0,1,.75.456,5.567,5.567,0,0,1,1.14,1.169,8.445,8.445,0,0,1,1.377,4.712,7.321,7.321,0,0,1-1.377,4.359,5.565,5.565,0,0,1-1.14,1.169v1.334c.356,0,1.691-1.357,2.067-1.836a8.6,8.6,0,0,0,1.574-5.026Zm-3.652,4.542a3.139,3.139,0,0,0,.544-.624,6.6,6.6,0,0,0,1.229-3.923,7.754,7.754,0,0,0-1.229-4.276,3.069,3.069,0,0,0-.544-.627Z" transform="translate(-413.021 -28.656)" fill="#00ceff"/>
    <path id="Trazado_153" data-name="Trazado 153" d="M749.161,309.055v6.36h1.118v-5.257h4.693v.753h-3.954v4.5h3.94v.73h-5.8V322.4h1.118v-5.157h4.693v.73h-3.954V322.4h3.94v.753h-3.94v1.1h3.94v.73h-6.526V308.325h6.526v.73Zm1.118,15.2v-1.1h-1.1v1.1Z" transform="translate(-485.245 -28.728)" fill="#00ceff"/>
    <path id="Trazado_154" data-name="Trazado 154" d="M834.721,323.281v1.14h4.733v.707h-7.278V308.473h.71v14.1h1.14v-14.1h.71v14.1h4.733v.71h-4.747Zm-.71,0h-1.14v1.14h1.14Z" transform="translate(-557.688 -28.856)" fill="#00ceff"/>
    <path id="Trazado_155" data-name="Trazado 155" d="M495.615,476.487a1.6,1.6,0,0,1,.738.16,1.426,1.426,0,0,1,.522.442,1.961,1.961,0,0,1,.3.641,2.852,2.852,0,0,1,.1.753,2.7,2.7,0,0,1-.18,1,1.612,1.612,0,0,1-.547.724,1.531,1.531,0,0,1-.938.271h-1.454a.175.175,0,0,1-.174-.171v-3.649a.175.175,0,0,1,.174-.171Zm-.057,3.655a1.275,1.275,0,0,0,.781-.222,1.294,1.294,0,0,0,.436-.6,2.363,2.363,0,0,0,.14-.835,2.52,2.52,0,0,0-.077-.63,1.61,1.61,0,0,0-.239-.53,1.161,1.161,0,0,0-.422-.356,1.349,1.349,0,0,0-.619-.134h-1.252l.043-.051V480.2l-.034-.057Z" transform="translate(-265.138 -174.197)" fill="#00ceff"/>
    <path id="Trazado_156" data-name="Trazado 156" d="M524.747,480.3a.176.176,0,0,1-.06.125.171.171,0,0,1-.123.051.165.165,0,0,1-.128-.051.176.176,0,0,1-.048-.125v-3.638a.171.171,0,0,1,.051-.126.183.183,0,0,1,.254,0,.166.166,0,0,1,.054.126Z" transform="translate(-291.436 -174.2)" fill="#00ceff"/>
    <path id="Trazado_157" data-name="Trazado 157" d="M535.062,480.172a2.117,2.117,0,0,1-.815-.154,1.94,1.94,0,0,1-.656-.43,1.97,1.97,0,0,1-.43-.653,2.235,2.235,0,0,1,0-1.631,2,2,0,0,1,.43-.653,1.943,1.943,0,0,1,.656-.43,2.12,2.12,0,0,1,.815-.154,2.344,2.344,0,0,1,.585.071,1.6,1.6,0,0,1,.5.214.217.217,0,0,1,.06.066.194.194,0,0,1,.02.077.166.166,0,0,1-.051.128.162.162,0,0,1-.108.048.165.165,0,0,1-.054,0l-.048-.02a2.043,2.043,0,0,0-.422-.171,1.8,1.8,0,0,0-.485-.063,1.71,1.71,0,0,0-.875.222,1.6,1.6,0,0,0-.6.61,1.887,1.887,0,0,0,0,1.756,1.6,1.6,0,0,0,.6.61,1.71,1.71,0,0,0,.875.222,1.8,1.8,0,0,0,.516-.074,1.53,1.53,0,0,0,.448-.2l-.028.12v-1.311l.085.08H535.1a.169.169,0,0,1-.126-.051.166.166,0,0,1-.051-.12.159.159,0,0,1,.051-.125.174.174,0,0,1,.126-.046h1.089a.174.174,0,0,1,.123.048.171.171,0,0,1,.048.122v1.374a.171.171,0,0,1-.023.086.207.207,0,0,1-.063.068,2.184,2.184,0,0,1-.57.285A2.061,2.061,0,0,1,535.062,480.172Z" transform="translate(-298.892 -173.833)" fill="#00ceff"/>
    <path id="Trazado_158" data-name="Trazado 158" d="M564.7,480.3a.191.191,0,0,1-.182.177.165.165,0,0,1-.128-.051.177.177,0,0,1-.048-.125v-3.638a.171.171,0,0,1,.051-.126.183.183,0,0,1,.254,0,.166.166,0,0,1,.054.126Z" transform="translate(-325.994 -174.2)" fill="#00ceff"/>
    <path id="Trazado_159" data-name="Trazado 159" d="M572.535,476.815a.17.17,0,0,1-.12-.046.154.154,0,0,1-.051-.12.142.142,0,0,1,.051-.114.171.171,0,0,1,.12-.046h2.717a.171.171,0,0,1,.12.046.151.151,0,0,1,.051.12.145.145,0,0,1-.051.117.182.182,0,0,1-.12.043Zm1.357,3.666a.171.171,0,0,1-.177-.165v-3.632h.354v3.632a.166.166,0,0,1-.051.12A.168.168,0,0,1,573.893,480.481Z" transform="translate(-332.938 -174.2)" fill="#00ceff"/>
    <path id="Trazado_160" data-name="Trazado 160" d="M597.256,476.818l-1.385,3.444a.185.185,0,0,1-.063.086.152.152,0,0,1-.091.028.154.154,0,0,1-.12-.043.156.156,0,0,1-.046-.106.121.121,0,0,1,0-.068l1.505-3.683a.176.176,0,0,1,.071-.088.194.194,0,0,1,.1-.026.154.154,0,0,1,.1.031.187.187,0,0,1,.065.083l1.5,3.666a.192.192,0,0,1,0,.068.148.148,0,0,1-.051.123.183.183,0,0,1-.12.043.153.153,0,0,1-.1-.031.188.188,0,0,1-.066-.083l-1.425-3.467Zm-1.055,2.4.143-.336h1.767l.068.336Z" transform="translate(-352.992 -174.089)" fill="#00ceff"/>
    <path id="Trazado_161" data-name="Trazado 161" d="M627.858,480.144a.174.174,0,0,1,.12.048.165.165,0,0,1,.006.234l-.006.006a.162.162,0,0,1-.12.049h-2.041a.165.165,0,0,1-.122-.051.172.172,0,0,1-.048-.12V476.66a.165.165,0,0,1,.051-.12.179.179,0,0,1,.131-.051.171.171,0,0,1,.122.051.157.157,0,0,1,.054.12v3.581l-.108-.1Z" transform="translate(-379.03 -174.2)" fill="#00ceff"/>
    <path id="Trazado_162" data-name="Trazado 162" d="M659.872,476.49a.223.223,0,0,1,.083.017.15.15,0,0,1,.071.057l1.574,2.361h-.154l1.582-2.355a.183.183,0,0,1,.255-.039l.016.013a.171.171,0,0,1,.048.123v3.649a.166.166,0,0,1-.051.12.172.172,0,0,1-.125.051.177.177,0,0,1-.131-.051.165.165,0,0,1-.051-.12v-3.307h.1l-1.445,2.184a.118.118,0,0,1-.051.054.222.222,0,0,1-.157,0,.179.179,0,0,1-.06-.054l-1.448-2.207.108-.074V480.3a.175.175,0,0,1-.048.12.163.163,0,0,1-.123.051.154.154,0,0,1-.12-.051.171.171,0,0,1-.046-.12v-3.638a.174.174,0,0,1,.048-.12A.163.163,0,0,1,659.872,476.49Z" transform="translate(-408.489 -174.2)" fill="#00ceff"/>
    <path id="Trazado_163" data-name="Trazado 163" d="M693.591,476.817l-1.385,3.444a.186.186,0,0,1-.063.086.152.152,0,0,1-.091.028.154.154,0,0,1-.12-.043.157.157,0,0,1-.046-.105.119.119,0,0,1,0-.068l1.505-3.683a.171.171,0,0,1,.171-.114.153.153,0,0,1,.1.031.187.187,0,0,1,.066.083l1.5,3.666a.19.19,0,0,1,0,.069.148.148,0,0,1-.051.122.182.182,0,0,1-.12.043.154.154,0,0,1-.1-.031.188.188,0,0,1-.066-.083l-1.425-3.467Zm-1.055,2.4.142-.336h1.768l.068.336Z" transform="translate(-436.327 -174.088)" fill="#00ceff"/>
    <path id="Trazado_164" data-name="Trazado 164" d="M722.2,480.481a.2.2,0,0,1-.14-.051.168.168,0,0,1-.054-.12v-3.649a.177.177,0,0,1,.171-.171h1.537a1.184,1.184,0,0,1,.57.14,1.044,1.044,0,0,1,.4.385,1.061,1.061,0,0,1,.168.553,1.159,1.159,0,0,1-.091.462,1.046,1.046,0,0,1-.257.356,1.077,1.077,0,0,1-.371.214l-.2-.063a.855.855,0,0,1,.393.134.908.908,0,0,1,.285.319,1.084,1.084,0,0,1,.117.487,2.919,2.919,0,0,0,.026.382.521.521,0,0,0,.06.205.285.285,0,0,0,.1.108.185.185,0,0,1,.077.1.146.146,0,0,1-.014.12.135.135,0,0,1-.066.065.2.2,0,0,1-.088.02.172.172,0,0,1-.091-.023.569.569,0,0,1-.162-.142.7.7,0,0,1-.137-.285,1.946,1.946,0,0,1-.054-.525.851.851,0,0,0-.071-.365.584.584,0,0,0-.182-.22.7.7,0,0,0-.245-.108,1.19,1.19,0,0,0-.254-.031H722.3l.063-.08v1.614a.172.172,0,0,1-.046.12A.149.149,0,0,1,722.2,480.481Zm.1-2.019h1.425a.792.792,0,0,0,.365-.128.855.855,0,0,0,.285-.305.947.947,0,0,0,.106-.45.724.724,0,0,0-.22-.539.793.793,0,0,0-.57-.214h-1.366l.04-.08v1.8Z" transform="translate(-462.383 -174.2)" fill="#00ceff"/>
    <path id="Trazado_165" data-name="Trazado 165" d="M750.424,480.481a.165.165,0,0,1-.128-.051.176.176,0,0,1-.048-.125v-3.638a.171.171,0,0,1,.051-.126.177.177,0,0,1,.131-.051.174.174,0,0,1,.177.171V480.3a.186.186,0,0,1-.057.125A.171.171,0,0,1,750.424,480.481Zm2.611-3.991a.171.171,0,0,1,.165.165.166.166,0,0,1-.051.12l-2.589,2.423-.046-.388,2.395-2.264a.171.171,0,0,1,.137-.046Zm.063,3.991a.154.154,0,0,1-.125-.063l-1.608-2.024.268-.268,1.631,2.064a.2.2,0,0,1,.04.12.148.148,0,0,1-.066.137.213.213,0,0,1-.128.057Z" transform="translate(-486.817 -174.199)" fill="#00ceff"/>
    <path id="Trazado_166" data-name="Trazado 166" d="M778.987,476.49h2.1a.171.171,0,0,1,.171.171h0a.154.154,0,0,1-.051.12.172.172,0,0,1-.12.046h-1.959l.06-.1v1.6l-.066-.074h1.711a.177.177,0,0,1,.171.171.154.154,0,0,1-.051.12.171.171,0,0,1-.12.046h-1.711l.054-.057v1.642l-.031-.034h1.936a.177.177,0,0,1,.171.171.148.148,0,0,1-.051.12.171.171,0,0,1-.12.046h-2.1a.177.177,0,0,1-.171-.171v-3.649a.177.177,0,0,1,.171-.171Z" transform="translate(-511.525 -174.2)" fill="#00ceff"/>
    <path id="Trazado_167" data-name="Trazado 167" d="M800.509,476.815a.17.17,0,0,1-.12-.046.154.154,0,0,1-.051-.12.142.142,0,0,1,.051-.114.171.171,0,0,1,.12-.046h2.714a.171.171,0,0,1,.12.046.151.151,0,0,1,.051.12.144.144,0,0,1-.051.117.182.182,0,0,1-.12.043Zm1.357,3.666a.165.165,0,0,1-.128-.051.173.173,0,0,1-.049-.12v-3.626h.353v3.632a.165.165,0,0,1-.051.12A.172.172,0,0,1,801.866,480.481Z" transform="translate(-530.147 -174.2)" fill="#00ceff"/>
    <path id="Trazado_168" data-name="Trazado 168" d="M828.774,480.312a.2.2,0,0,1-.06.125.174.174,0,0,1-.122.051.171.171,0,0,1-.177-.165s0-.008,0-.012v-3.638a.171.171,0,0,1,.051-.125.183.183,0,0,1,.308.125Z" transform="translate(-554.435 -174.208)" fill="#00ceff"/>
    <path id="Trazado_169" data-name="Trazado 169" d="M841.894,476.487a.146.146,0,0,1,.117.046.157.157,0,0,1,.043.114V480.3a.177.177,0,0,1-.171.182h-.006a.192.192,0,0,1-.074,0,.138.138,0,0,1-.063-.043l-2.543-3.421.1-.051v3.381a.152.152,0,0,1-.046.108.154.154,0,0,1-.114.046.145.145,0,0,1-.117-.046.148.148,0,0,1-.043-.108v-3.686a.157.157,0,0,1,.051-.128.171.171,0,0,1,.114-.043.189.189,0,0,1,.074.014.13.13,0,0,1,.063.048l2.514,3.387-.057.1v-3.393a.151.151,0,0,1,.048-.114A.16.16,0,0,1,841.894,476.487Z" transform="translate(-563.571 -174.198)" fill="#00ceff"/>
    <path id="Trazado_170" data-name="Trazado 170" d="M869.849,480.172a2.126,2.126,0,0,1-.815-.154,1.941,1.941,0,0,1-.656-.43,1.971,1.971,0,0,1-.43-.653,2.235,2.235,0,0,1,0-1.631,2,2,0,0,1,.43-.653,1.943,1.943,0,0,1,.656-.43,2.129,2.129,0,0,1,.815-.154,2.337,2.337,0,0,1,.57.071,1.6,1.6,0,0,1,.5.214.217.217,0,0,1,.06.066.152.152,0,0,1,.02.077.166.166,0,0,1-.051.128.163.163,0,0,1-.108.048.166.166,0,0,1-.054,0l-.049-.02a2.041,2.041,0,0,0-.422-.171,1.792,1.792,0,0,0-.485-.063,1.71,1.71,0,0,0-.872.222,1.584,1.584,0,0,0-.6.61,1.887,1.887,0,0,0,0,1.756,1.584,1.584,0,0,0,.6.61,1.71,1.71,0,0,0,.872.222,1.805,1.805,0,0,0,.516-.074,1.532,1.532,0,0,0,.448-.2l-.028.12v-1.311l.085.08h-.986a.169.169,0,0,1-.126-.051.165.165,0,0,1-.051-.12.16.16,0,0,1,.051-.125.174.174,0,0,1,.126-.046h1.089a.174.174,0,0,1,.123.048.171.171,0,0,1,.049.123v1.374a.175.175,0,0,1-.023.086.183.183,0,0,1-.063.068,2.136,2.136,0,0,1-.57.285A2.063,2.063,0,0,1,869.849,480.172Z" transform="translate(-588.5 -173.834)" fill="#00ceff"/>
  </g>
</svg>
