<svg xmlns="http://www.w3.org/2000/svg" xmlns:xlink="http://www.w3.org/1999/xlink" width="208.821" height="196.512" viewBox="0 0 208.821 196.512">
  <defs>
    <linearGradient id="linear-gradient" x1="0.5" x2="0.5" y2="1" gradientUnits="objectBoundingBox">
      <stop offset="0" stop-color="#ff57ce"/>
      <stop offset="0.746" stop-color="#7ca9f6"/>
      <stop offset="1" stop-color="#60bbff"/>
    </linearGradient>
  </defs>
  <g id="megaphone" transform="translate(-2.662 31.407) rotate(-19)">
    <g id="Grupo_146" data-name="Grupo 146" transform="translate(2.279 1.559)">
      <g id="Grupo_145" data-name="Grupo 145" transform="translate(0 0)">
        <path id="Trazado_323" data-name="Trazado 323" d="M3.345,79.244,79.248,3.33A11.408,11.408,0,1,1,95.384,19.46L19.47,95.369A11.4,11.4,0,0,1,3.345,79.244Z" fill="url(#linear-gradient)"/>
      </g>
    </g>
    <g id="Grupo_148" data-name="Grupo 148" transform="translate(29.155 31.513)">
      <g id="Grupo_147" data-name="Grupo 147" transform="translate(0 0)">
        <path id="Trazado_324" data-name="Trazado 324" d="M71.051,0l.571,2.864c4.024,20.13,13.8,39.253,27.033,54.753l-41.3,41.3C41.86,85.689,23,75.646,2.869,71.617L0,71.046Z" transform="translate(0 0)" fill="url(#linear-gradient)"/>
      </g>
    </g>
    <g id="Grupo_150" data-name="Grupo 150" transform="translate(91.158 97.684)">
      <g id="Grupo_149" data-name="Grupo 149" transform="translate(0 0)">
        <path id="Trazado_325" data-name="Trazado 325" d="M40.315,0,68.539,28.218a17.1,17.1,0,0,1,0,24.193L52.414,68.536a17.1,17.1,0,0,1-24.193,0L0,40.315ZM36.284,44.349a5.7,5.7,0,0,0,8.062-8.062l-8.062-8.062a5.7,5.7,0,0,0-8.062,8.062Z" transform="translate(0 0)" fill="url(#linear-gradient)"/>
      </g>
    </g>
    <g id="Grupo_152" data-name="Grupo 152" transform="translate(58.076 131.546)">
      <g id="Grupo_151" data-name="Grupo 151" transform="translate(0 0)">
        <path id="Trazado_326" data-name="Trazado 326" d="M12.771,37.708,5.015,29.952a17.09,17.09,0,0,1,0-24.187L10.775,0a108,108,0,0,1,9.182,6.943l-6.88,6.89a5.689,5.689,0,0,0,0,8.057l7.884,7.884L32.547,18.548,48.673,34.674,22.8,59.741A11.4,11.4,0,0,1,6.685,43.6Z" transform="translate(0 0)" fill="url(#linear-gradient)"/>
      </g>
    </g>
    <g id="Grupo_154" data-name="Grupo 154" transform="translate(43.622 0)">
      <g id="Grupo_153" data-name="Grupo 153">
        <path id="Trazado_327" data-name="Trazado 327" d="M5.7,0a5.7,5.7,0,0,1,5.7,5.7V17.1A5.7,5.7,0,1,1,0,17.1V5.7A5.7,5.7,0,0,1,5.7,0Z" transform="translate(0 0)" fill="url(#linear-gradient)"/>
      </g>
    </g>
    <g id="Grupo_156" data-name="Grupo 156" transform="translate(0 45.613)">
      <g id="Grupo_155" data-name="Grupo 155" transform="translate(0 0)">
        <path id="Trazado_328" data-name="Trazado 328" d="M5.7,0H17.1a5.7,5.7,0,1,1,0,11.4H5.7A5.7,5.7,0,0,1,5.7,0Z" transform="translate(0 0)" fill="url(#linear-gradient)"/>
      </g>
    </g>
    <g id="Grupo_158" data-name="Grupo 158" transform="translate(11.404 11.403)">
      <g id="Grupo_157" data-name="Grupo 157">
        <path id="Trazado_329" data-name="Trazado 329" d="M1.67,1.67a5.7,5.7,0,0,1,8.063,0l11.4,11.4a5.7,5.7,0,0,1-8.063,8.062L1.67,9.733A5.7,5.7,0,0,1,1.67,1.67Z" fill="url(#linear-gradient)"/>
      </g>
    </g>
  </g>
</svg>
