<svg xmlns="http://www.w3.org/2000/svg" width="525.969" height="533.294" viewBox="0 0 525.969 533.294">
  <g id="Grupo_294" data-name="Grupo 294" transform="translate(-10 -2.661)" opacity="0.518">
    <g id="Grupo_286" data-name="Grupo 286" transform="translate(10 10.161)">
      <g id="Grupo_285" data-name="Grupo 285">
        <path id="Trazado_382" data-name="Trazado 382" d="M232.2,12.742C154.8,26.267,94.262,65.768,52.078,130.065,22.774,174.934,10,218.943,10,274.975c0,24.044,2.147,41.326,7.943,64.19a265.715,265.715,0,0,0,43.688,91.347c38.428,51.738,96.5,88.663,159.293,101.115,21.575,4.294,26.191,4.616,56.354,4.186,26.513-.429,31.021-.751,44.01-3.328,55.066-10.841,98.861-34.027,138.04-73.1,40.038-40.145,63.331-85.121,73.958-142.656,2.469-13.418,2.683-17.5,2.683-42.936,0-25.118-.322-29.841-2.683-43.151a282.057,282.057,0,0,0-42.078-105.516c-25.44-38.321-59.359-67.3-103.906-88.878-40.682-19.643-70.415-26.3-117-26.084C250.658,10.273,244.217,10.7,232.2,12.742Zm47.552,15.886c4.186,1.825,12.881,11.056,19,20.287,12.774,19.429,23.078,49.162,31.665,91.776l.751,3.542H272.985c-54.851,0-58.071-.107-57.535-1.932.322-.966,2.254-9.553,4.4-19,7.729-33.6,16.208-57,26.3-72.777C258.6,31.2,269.12,24.227,279.747,28.628ZM225.755,49.989c-12.022,25.332-19,46.371-25.332,77.071-1.61,7.407-3.328,14.276-3.864,15.242-.859,1.825-3.65,1.932-34.671,1.932-18.57,0-33.812-.322-33.812-.644s3.22-6.87,7.084-14.491c17.175-33.7,39.287-60.218,64.834-77.5,8.158-5.582,29.519-16.852,31.88-16.852C232.517,34.747,229.834,41.616,225.755,49.989Zm104.228-7.729c33.276,16.745,59.467,44.868,81.579,87.375l7.621,14.6H349.518l-1.288-6.762c-2.791-14.813-11.056-46.156-15.672-59.789a290.864,290.864,0,0,0-11.593-27.8c-3.65-7.407-6.762-13.74-6.977-14.276C313.559,34.532,319.57,37.108,329.982,42.261ZM162.853,58.684c-19.965,21.039-34.134,41.863-47.552,69.986-3.006,6.44-6.333,12.559-7.3,13.632-1.5,1.717-3.972,1.932-22.649,1.932H64.529l2.361-3.972c5.152-8.695,18.248-25.01,28.982-36.174,19.643-20.395,38.321-34.564,62.258-47.23,6.226-3.328,11.485-6.011,11.7-6.011S166.932,54.39,162.853,58.684Zm231.426,1.5c34.564,19.536,61.184,44.439,84.692,79l3.435,5.045-21.79-.215-21.79-.322-3.757-7.514c-17.819-36.174-29.2-53.241-50.557-76.1C375.066,49.989,376.246,49.989,394.279,60.186ZM100.7,164.307c-2.361,6.011-10.412,40.575-12.237,52.919-2.039,13.31-4.4,37.891-4.4,45.19v3.113h-57l.644-6.226c4.294-38.643,8.695-57.32,19.858-83.189,6.333-14.706,3.972-13.632,30.914-13.632C99.951,162.482,101.454,162.589,100.7,164.307Zm91.669,2.684c0,2.576-1.61,25.654-3.435,51.309L185.5,264.992l-41.755.322-41.756.215.751-12.559a402.091,402.091,0,0,1,6.977-51.846c3.864-17.711,8.909-34.564,11.056-36.71,1.825-1.825,4.4-1.932,36.818-1.932h34.886Zm142.763,3.757c3.113,22,6.548,66.766,6.548,86.409v8.373h-68.7c-37.784,0-68.7-.322-68.7-.859.537-29.948,5.582-93.6,8.051-100.9.322-.966,13.525-1.288,61.077-1.288h60.54Zm90.6-6.44c1.825,2.147,7.943,23.078,11.378,38.965a333.2,333.2,0,0,1,6.226,48.518l.644,13.74H361.111l-.537-5.689c-.322-3.006-1.825-22.971-3.328-44.224s-3.006-41.863-3.328-45.942l-.751-7.192H388.59C420.9,162.482,424.12,162.7,425.73,164.307Zm66.444,0c4.723,5.367,13.74,28.231,18.57,46.908a274.563,274.563,0,0,1,7.514,45.405l.644,8.909H462.226l-.644-13.2a350.542,350.542,0,0,0-12.988-77.285l-3.65-12.559h22.863C488.1,162.482,490.779,162.7,492.174,164.307ZM84.6,293.116c2.039,28.338,6.118,53.348,12.344,75.46,2.254,7.943,4.508,15.35,4.83,16.423.751,1.717-.644,1.825-22.649,1.61l-23.508-.322-3.435-6.44c-7.943-14.92-17.6-44.117-20.609-62.258-1.932-11.163-4.186-32.095-3.65-33.061.215-.429,12.988-.751,28.231-.751H83.85ZM188.83,328.86c1.932,24.474,3.757,47.552,4.079,51.2l.537,6.762H158.237c-28.445,0-35.53-.322-36.5-1.5-3.22-3.864-10.841-31.773-14.6-53.778-2.791-16.53-5.367-43.58-4.4-46.156.537-1.4,5.8-1.61,41.648-1.4l41.111.322Zm152.853-37.891c-.107,19.107-3.542,63.438-6.762,86.195l-1.288,9.124-59.9.322-59.789.215-1.073-2.362c-.537-1.4-2.684-22-4.83-45.942s-4.186-46.049-4.508-49.162l-.644-5.582H341.683Zm101.544,5.152a324.358,324.358,0,0,1-6.118,46.693c-3.005,15.028-10.3,39.823-12.452,42.078-1.61,1.825-4.616,1.932-36.5,1.932H353.49v-3.435c0-4.079,6.118-85.872,7.085-94.03l.537-5.582h82.867Zm75.568-9.661c0,5.689-5.582,39.716-8.051,49.162-4.723,18.141-15.135,44.439-19.536,49.269-1.61,1.717-3.972,1.932-24.474,1.932H443.978l3.435-11.593a364.26,364.26,0,0,0,14.062-78.9l.751-12.559h56.568ZM108.968,406.9c.966,1.073,5.045,8.695,9.231,16.96,12.237,24.044,25.547,43.258,43.044,61.936,4.294,4.616,7.192,8.373,6.548,8.373-1.932,0-18.248-8.909-28.982-15.886a231.877,231.877,0,0,1-49.484-42.722c-9.446-10.841-22.434-28.016-22.434-29.626,0-.429,9.124-.859,20.18-.859C105,405.072,107.573,405.287,108.968,406.9Zm370.54-.537c-.429.751-4.723,6.762-9.661,13.31a250.777,250.777,0,0,1-84.584,71.918c-11.378,5.9-11.593,6.44,4.83-11.807,17.175-19,28.66-36.066,39.394-58.608,3.22-6.762,6.655-13.2,7.514-14.276,1.4-1.61,3.972-1.825,22.434-1.825C475.858,405.072,480.152,405.394,479.508,406.36Zm-280.159,8.587c7.3,34.242,15.564,60.111,25.869,80.935,8.48,17.067,8.587,16.53-3.113,11.163-35.852-16.1-66.444-48.2-89.2-93.279l-3.757-7.621h68.376Zm130.526-7.514c0,.751-1.181,6.655-2.684,13.2q-14.652,65.37-37.569,89.093c-9.983,10.3-17.926,11.7-27.909,4.83-15.672-10.841-32.095-46.478-41.756-90.7-1.61-7.084-3.113-13.954-3.328-15.35l-.537-2.361h56.891C317.746,406.145,329.875,406.467,329.875,407.433Zm85.98,1.073c-1.5,4.079-12.881,24.474-18.033,32.524a208.234,208.234,0,0,1-28.875,34.993c-11.593,11.271-19,16.96-31.451,24.366-7.943,4.723-23.83,12.237-24.581,11.593-.215-.215,3.22-7.407,7.621-15.994,9.446-18.463,14.813-34.134,22.22-64.619,3.006-12.451,5.689-23.186,5.9-23.937.322-.966,8.158-1.288,34.242-1.288h33.92Z" transform="translate(-10 -10.161)" fill="#8e8e8e"/>
      </g>
    </g>
    <g id="Grupo_287" data-name="Grupo 287" transform="translate(84.283 10.161)">
      <circle id="Elipse_24" data-name="Elipse 24" cx="62.952" cy="62.952" r="62.952" transform="translate(0 0)" fill="#fff" stroke="#8e8e8e" stroke-miterlimit="10" stroke-width="15"/>
      <path id="Trazado_383" data-name="Trazado 383" d="M269.709,151.263a5.311,5.311,0,0,0-3.809-3.988l-18.075-4.564-9.281,6.974-.127-4.569.634-3.994h-7.32l.631,3.945-.127,4.615-9.277-6.971-18.075,4.564a5.312,5.312,0,0,0-3.809,3.988l-.791,18.793a1.877,1.877,0,0,0,1.774,1.975c.055,0,.111,0,.166,0l33.167-.323,33.167.323a1.877,1.877,0,0,0,1.942-1.81c0-.055,0-.111,0-.166Z" transform="translate(-172.441 -70.835)" fill="#8e8e8e"/>
      <path id="Trazado_384" data-name="Trazado 384" d="M250.252,96.039c.611.039,3.518.05,4.285-.048,8.563-1.106,13.311-16.134,13.311-24.094a15.705,15.705,0,1,0-31.411,0C236.438,80.01,241.372,95.471,250.252,96.039Z" transform="translate(-189.191 -31.486)" fill="#8e8e8e"/>
    </g>
    <g id="Grupo_288" data-name="Grupo 288" transform="translate(37.836 386.824)">
      <circle id="Elipse_25" data-name="Elipse 25" cx="46.448" cy="46.448" r="46.448" fill="#fff" stroke="#8e8e8e" stroke-miterlimit="10" stroke-width="15"/>
      <path id="Trazado_385" data-name="Trazado 385" d="M151.364,816.079a3.918,3.918,0,0,0-2.81-2.943l-13.336-3.367-6.848,5.146-.093-3.372.469-2.947h-5.4l.465,2.911-.093,3.4-6.845-5.143-13.335,3.367a3.919,3.919,0,0,0-2.811,2.943l-.583,13.866a1.385,1.385,0,0,0,1.309,1.457c.041,0,.082,0,.122,0l24.471-.239,24.472.239a1.385,1.385,0,0,0,1.432-1.336c0-.041,0-.082,0-.122Z" transform="translate(-79.597 -756.737)" fill="#8e8e8e"/>
      <path id="Trazado_386" data-name="Trazado 386" d="M137.009,775.334c.451.029,2.595.037,3.162-.036,6.318-.816,9.821-11.9,9.821-17.777a11.588,11.588,0,0,0-23.175,0C126.816,763.507,130.456,774.914,137.009,775.334Z" transform="translate(-91.956 -727.705)" fill="#8e8e8e"/>
    </g>
    <g id="Grupo_289" data-name="Grupo 289" transform="translate(220.989 422.613)">
      <circle id="Elipse_26" data-name="Elipse 26" cx="35.646" cy="35.646" r="35.646" fill="#fff" stroke="#8e8e8e" stroke-miterlimit="10" stroke-width="15"/>
      <path id="Trazado_387" data-name="Trazado 387" d="M471.806,858.55a3.009,3.009,0,0,0-2.157-2.258l-10.234-2.584-5.255,3.949-.072-2.588.359-2.262H450.3l.357,2.234-.071,2.613-5.253-3.947L435.1,856.292a3.008,3.008,0,0,0-2.156,2.258l-.448,10.642a1.062,1.062,0,0,0,1,1.118c.031,0,.062,0,.094,0l18.78-.184,18.78.184a1.063,1.063,0,0,0,1.1-1.025c0-.032,0-.063,0-.094Z" transform="translate(-416.73 -813.009)" fill="#8e8e8e"/>
      <path id="Trazado_388" data-name="Trazado 388" d="M460.789,827.281c.346.022,1.992.029,2.426-.027,4.849-.626,7.537-9.136,7.537-13.643a8.893,8.893,0,0,0-17.786,0C452.967,818.205,455.761,826.959,460.789,827.281Z" transform="translate(-426.214 -790.729)" fill="#8e8e8e"/>
    </g>
    <g id="Grupo_290" data-name="Grupo 290" transform="translate(177.104 207.941)">
      <circle id="Elipse_27" data-name="Elipse 27" cx="57.588" cy="57.588" r="57.588" fill="#fff" stroke="#8e8e8e" stroke-miterlimit="10" stroke-width="15"/>
      <path id="Trazado_389" data-name="Trazado 389" d="M432.319,507.75a4.859,4.859,0,0,0-3.484-3.648L412.3,499.926l-8.49,6.38-.116-4.18.581-3.653h-6.7l.577,3.609-.116,4.221-8.486-6.377L373.019,504.1a4.859,4.859,0,0,0-3.484,3.648l-.723,17.192a1.718,1.718,0,0,0,1.624,1.807c.05,0,.1,0,.152,0l30.34-.3,30.341.3a1.717,1.717,0,0,0,1.776-1.656c0-.051,0-.1,0-.152Z" transform="translate(-343.338 -434.174)" fill="#8e8e8e"/>
      <path id="Trazado_390" data-name="Trazado 390" d="M414.52,457.231c.559.036,3.218.047,3.92-.044,7.834-1.012,12.177-14.76,12.177-22.041a14.367,14.367,0,0,0-28.734,0C401.883,442.569,406.4,456.712,414.52,457.231Z" transform="translate(-358.662 -398.179)" fill="#8e8e8e"/>
    </g>
    <g id="Grupo_291" data-name="Grupo 291" transform="translate(363.711 313.938)">
      <circle id="Elipse_28" data-name="Elipse 28" cx="78.542" cy="78.542" r="78.542" fill="#fff" stroke="#8e8e8e" stroke-miterlimit="10" stroke-width="15"/>
      <path id="Trazado_391" data-name="Trazado 391" d="M820.387,752.214a6.628,6.628,0,0,0-4.752-4.976l-22.551-5.694-11.579,8.7-.158-5.7.792-4.983h-9.133l.787,4.922-.158,5.758-11.575-8.7-22.551,5.694a6.628,6.628,0,0,0-4.752,4.976l-.986,23.447a2.342,2.342,0,0,0,2.214,2.464c.069,0,.138,0,.207,0l41.381-.4,41.38.4a2.341,2.341,0,0,0,2.423-2.258c0-.069,0-.138,0-.207Z" transform="translate(-699.03 -651.868)" fill="#8e8e8e"/>
      <path id="Trazado_392" data-name="Trazado 392" d="M796.111,683.314c.763.048,4.389.063,5.347-.061,10.683-1.38,16.607-20.13,16.607-30.061a19.595,19.595,0,0,0-39.19,0C778.876,663.316,785.032,682.605,796.111,683.314Z" transform="translate(-719.928 -602.775)" fill="#8e8e8e"/>
    </g>
    <g id="Grupo_292" data-name="Grupo 292" transform="translate(63.085 169.638)">
      <circle id="Elipse_29" data-name="Elipse 29" cx="39.451" cy="39.451" r="39.451" fill="#fff" stroke="#8e8e8e" stroke-miterlimit="10" stroke-width="15"/>
      <path id="Trazado_393" data-name="Trazado 393" d="M184.927,395.729a3.328,3.328,0,0,0-2.387-2.5l-11.327-2.86L165.4,394.74l-.079-2.864.4-2.5h-4.587l.395,2.473-.079,2.892-5.814-4.369L144.3,393.23a3.328,3.328,0,0,0-2.387,2.5l-.5,11.777a1.176,1.176,0,0,0,1.112,1.238c.034,0,.069,0,.1,0l20.785-.2,20.784.2a1.177,1.177,0,0,0,1.217-1.135c0-.035,0-.069,0-.1Z" transform="translate(-123.97 -345.326)" fill="#8e8e8e"/>
      <path id="Trazado_394" data-name="Trazado 394" d="M172.733,361.121c.384.024,2.2.032,2.686-.031,5.367-.693,8.342-10.111,8.342-15.1a9.842,9.842,0,1,0-19.685,0C164.076,351.076,167.169,360.765,172.733,361.121Z" transform="translate(-134.468 -320.667)" fill="#8e8e8e"/>
    </g>
    <g id="Grupo_293" data-name="Grupo 293" transform="translate(328.227 22.934)">
      <circle id="Elipse_30" data-name="Elipse 30" cx="91.259" cy="91.259" r="91.259" transform="translate(0)" fill="#fff" stroke="#8e8e8e" stroke-miterlimit="10" stroke-width="15"/>
      <path id="Trazado_395" data-name="Trazado 395" d="M778.776,238.51a7.7,7.7,0,0,0-5.522-5.782l-26.2-6.615L733.6,236.223l-.184-6.625.92-5.789H723.724l.914,5.72-.183,6.689-13.448-10.106-26.2,6.615a7.7,7.7,0,0,0-5.522,5.782l-1.146,27.244a2.722,2.722,0,0,0,2.572,2.863c.08,0,.16,0,.24,0l48.08-.469,48.08.469a2.722,2.722,0,0,0,2.815-2.624c0-.08,0-.16,0-.24Z" transform="translate(-637.771 -121.917)" fill="#8e8e8e"/>
      <path id="Trazado_396" data-name="Trazado 396" d="M750.57,158.455c.887.056,5.1.073,6.212-.07,12.413-1.6,19.3-23.39,19.3-34.929a22.767,22.767,0,0,0-45.534,0C730.545,135.219,737.7,157.632,750.57,158.455Z" transform="translate(-662.053 -64.876)" fill="#8e8e8e"/>
    </g>
  </g>
</svg>
