<svg xmlns="http://www.w3.org/2000/svg" xmlns:xlink="http://www.w3.org/1999/xlink" width="332.263" height="215.776" viewBox="0 0 332.263 215.776">
  <defs>
    <linearGradient id="linear-gradient" x1="0.5" x2="0.5" y2="1" gradientUnits="objectBoundingBox">
      <stop offset="0" stop-color="#ff57ce"/>
      <stop offset="0.746" stop-color="#7ca9f6"/>
      <stop offset="1" stop-color="#60bbff"/>
    </linearGradient>
  </defs>
  <g id="Grupo_295" data-name="Grupo 295" transform="translate(-464.394 -168.255)">
    <path id="Trazado_397" data-name="Trazado 397" d="M811.882,262H580.671A24.7,24.7,0,0,0,556,286.671v47.864l1.582-.693A58.622,58.622,0,0,1,567,330.587l.856-.213v-43.7a12.831,12.831,0,0,1,12.816-12.816H811.882A12.831,12.831,0,0,1,824.7,286.671v59.041a12.831,12.831,0,0,1-12.816,12.816H610.845l-.031,1.1c-.085,2.992-.205,6.124-.37,9.575l-.056,1.183H811.882a24.7,24.7,0,0,0,24.671-24.671V286.671A24.7,24.7,0,0,0,811.882,262Z" transform="translate(-39.895 -40.827)" fill="url(#linear-gradient)"/>
    <path id="Trazado_398" data-name="Trazado 398" d="M696.465,350.013l6.99,26.781H713.9l11.211-38.338h-9.273L709.06,367.59l-7.2-29.134H691.621l-7.336,29.2-6.782-29.2h-9.827l11.28,38.338h10.519Z" transform="translate(-88.531 -74.124)" fill="url(#linear-gradient)"/>
    <path id="Trazado_399" data-name="Trazado 399" d="M812.192,350.013l6.99,26.781h10.449l11.211-38.338h-9.273l-6.782,29.134-7.2-29.134H807.348l-7.336,29.2-6.782-29.2H783.4l11.28,38.338H805.2Z" transform="translate(-138.931 -74.124)" fill="url(#linear-gradient)"/>
    <path id="Trazado_400" data-name="Trazado 400" d="M927.919,350.013l6.99,26.781h10.449l11.211-38.338H947.3l-6.782,29.134-7.2-29.134H923.075l-7.336,29.2-6.782-29.2h-9.827l11.28,38.338h10.519Z" transform="translate(-189.331 -74.124)" fill="url(#linear-gradient)"/>
    <path id="Trazado_401" data-name="Trazado 401" d="M574.966,365.661a5.914,5.914,0,0,0-6.5-.541l-80.858,44.131a5.927,5.927,0,0,0,.6,10.689l16.739,6.839L489.468,443.07a5.928,5.928,0,0,0,.45,8.592l19.193,16.37a5.926,5.926,0,0,0,8.636-1.017l14.758-20.24,10.3,15.4a5.927,5.927,0,0,0,10.655-1.77l23.573-88.562A5.92,5.92,0,0,0,574.966,365.661Zm-55.453,63a5.928,5.928,0,0,0-2.055-9.57l-13.226-5.4,57.795-31.543L545.375,444.7l-7.733-11.564a5.927,5.927,0,0,0-9.716-.2l-15.989,21.927L502.37,446.7Z" transform="translate(-8.765 -85.419)" fill="url(#linear-gradient)"/>
    <path id="Trazado_402" data-name="Trazado 402" d="M590.934,206.009a5.871,5.871,0,0,0,2.564.586,5.961,5.961,0,0,0,5.346-3.361l12.728-26.485a5.927,5.927,0,0,0-10.685-5.134L588.158,198.1a5.927,5.927,0,0,0,2.775,7.91Z" transform="translate(-53.644)" fill="url(#linear-gradient)"/>
    <path id="Trazado_403" data-name="Trazado 403" d="M498.913,259.065a5.964,5.964,0,0,0,5.779-4.632,5.927,5.927,0,0,0-4.487-7.08l-28.586-6.4a5.927,5.927,0,0,0-2.591,11.568l28.586,6.4A5.953,5.953,0,0,0,498.913,259.065Z" transform="translate(0 -31.596)" fill="url(#linear-gradient)"/>
    <path id="Trazado_404" data-name="Trazado 404" d="M533.035,203.308a5.955,5.955,0,0,0,5.364,3.4,5.929,5.929,0,0,0,5.358-8.456L531.25,171.726a5.927,5.927,0,1,0-10.722,5.056Z" transform="translate(-24.2 -0.032)" fill="url(#linear-gradient)"/>
  </g>
</svg>
