<?xml version="1.0" encoding="utf-8"?>
<!-- Generator: Adobe Illustrator 25.2.3, SVG Export Plug-In . SVG Version: 6.00 Build 0)  -->
<svg version="1.1" id="Capa_1" xmlns="http://www.w3.org/2000/svg" xmlns:xlink="http://www.w3.org/1999/xlink" x="0px" y="0px"
	 viewBox="0 0 179.3 166.8" style="enable-background:new 0 0 179.3 166.8;" xml:space="preserve">
<style type="text/css">
	.st0{fill:url(#SVGID_1_);}
	.st1{fill:#A36D3B;}
	.st2{fill:#FFFFFF;}
	.st3{font-family:'HelveticaNeue-Medium';}
	.st4{font-size:5.3584px;}
	.st5{letter-spacing:1;}
	.st6{opacity:5.000000e-02;}
	.st7{opacity:0.76;fill:url(#SVGID_2_);enable-background:new    ;}
</style>
<g>
	<g id="Capa_1_1_">
		<g>
			
				<linearGradient id="SVGID_1_" gradientUnits="userSpaceOnUse" x1="1888.3054" y1="6804.6533" x2="1945.5479" y2="6804.6533" gradientTransform="matrix(-1 0 0 1 1962.46 -6716.8604)">
				<stop  offset="0" style="stop-color:#F2E9A1"/>
				<stop  offset="1" style="stop-color:#A36D3B"/>
			</linearGradient>
			<rect x="16.9" y="57.7" class="st0" width="57.2" height="60.2"/>
		</g>
		<path class="st1" d="M78,69.7h24.7l0,8h-1.2c-0.4-2.9-1.5-4.8-3.3-5.8c-1-0.6-2.5-0.9-4.6-0.9v21c0,1.5,0.3,2.4,0.8,2.9
			c0.5,0.5,1.6,0.7,3.3,0.7v1H83.1v-1c1.6,0,2.7-0.2,3.2-0.7S87,93.4,87,92V71c-2,0.1-3.5,0.4-4.6,0.9c-2,1-3.1,3-3.3,5.8H78
			L78,69.7z"/>
		<path class="st1" d="M105.2,95.6c1.1,0,1.9-0.2,2.4-0.4c0.8-0.4,1.2-1.2,1.2-2.4V73.5c0-1.2-0.4-1.9-1.2-2.3
			c-0.4-0.2-1.3-0.4-2.5-0.5v-1h14.3v1c-1.7,0.1-2.8,0.3-3.3,0.7c-0.6,0.4-0.8,1.4-0.8,3v18.8c0,0.9,0.2,1.5,0.7,1.8
			c0.5,0.3,1.4,0.4,2.8,0.4c2.5,0,4.5-0.5,6.2-1.6c1.7-1.1,3.1-3.1,4.3-6.2h1.2l-1.7,9h-23.7V95.6z"/>
		<path class="st1" d="M133.4,87.3h1.2c0.7,3,1.7,5.1,3.2,6.5c1.3,1.3,3.1,2,5,2c1.8,0,3.1-0.5,3.9-1.4c0.7-0.8,1.1-1.8,1.2-2.9
			c0-1.1-0.4-2.2-1.2-2.9c-0.5-0.5-1.6-1.1-3.2-1.9l-2.6-1.3c-2.6-1.3-4.4-2.5-5.5-3.8c-1.1-1.3-1.6-2.9-1.6-4.6c0-2,0.8-4,2.1-5.5
			c1.4-1.7,3.6-2.5,6.5-2.5c1.5,0,2.9,0.2,4.3,0.7c0.8,0.3,1.6,0.5,2.4,0.6c0.3,0,0.7-0.1,0.9-0.4c0.2-0.3,0.3-0.6,0.4-1h1.2v8.7
			h-1.1c-0.5-1.9-1.5-3.7-2.8-5.2c-1.2-1.4-3-2.2-4.9-2.2c-1.4,0-2.4,0.4-3.2,1.1c-0.8,0.7-1.2,1.7-1.2,2.7c0,1.3,0.4,2.2,1.1,2.8
			c0.7,0.6,2.4,1.6,4.9,2.8l3,1.5c1.2,0.6,2.3,1.3,3.2,2.2c1.5,1.4,2.3,3.4,2.2,5.5c0,2-0.8,3.9-2.4,5.7c-1.6,1.8-4.2,2.7-7.7,2.7
			c-0.8,0-1.7-0.1-2.5-0.2c-0.8-0.2-1.7-0.4-2.5-0.7l-0.8-0.3c-0.2-0.1-0.4-0.1-0.5-0.1c-0.1,0-0.3,0-0.4-0.1
			c-0.3,0-0.7,0.1-0.9,0.4c-0.2,0.3-0.3,0.7-0.4,1h-1.2L133.4,87.3z"/>
		<text transform="matrix(1 0 0 1 77.9902 104.1682)" class="st2 st3 st4 st5">TOP LIEN SOLUTIONS</text>
		<g class="st6">
			<polygon points="20.9,63.1 28.4,63.1 20.8,70.7 			"/>
			<polygon points="20.8,78.5 36.7,63.1 44.1,63.1 20.8,86.6 			"/>
			<polygon points="20.9,102.7 39.2,84.9 54.3,100 69.7,84.6 71.6,86.6 71.6,78.6 62.7,78.6 65.2,81.1 53.9,92.3 38.4,76.8 
				20.8,94.3 			"/>
			<polygon points="20.8,110 38.7,92.2 42.6,96.1 24.6,114.1 20.8,114.1 			"/>
			<polygon points="33,114.1 46.3,100.7 49.9,104.3 40.3,113.9 			"/>
			<polygon points="48.5,113.6 71.4,90.7 71.4,98.3 56,113.7 			"/>
			<polygon points="64.2,113.7 71.5,106.4 71.5,113.7 			"/>
			<polygon points="49.9,80.7 53.9,84.7 71.6,66.9 71.6,63.1 67.9,63.1 			"/>
			<polygon points="42.6,72.9 46.4,76.7 60,63.1 52.6,63.1 			"/>
		</g>
		
			<linearGradient id="SVGID_2_" gradientUnits="userSpaceOnUse" x1="20.1091" y1="79.3425" x2="70.9576" y2="79.3425" gradientTransform="matrix(1 0 0 -1 0 168)">
			<stop  offset="0" style="stop-color:#000000;stop-opacity:0.5"/>
			<stop  offset="1" style="stop-color:#FFAF45"/>
		</linearGradient>
		<polygon class="st7" points="20.2,101.6 38.6,83.8 53.6,98.9 69,83.5 71,85.4 71,77.5 62.1,77.5 64.5,79.9 53.3,91.2 37.8,75.7 
			20.1,93.2 		"/>
	</g>
</g>
</svg>
