<?xml version="1.0" encoding="utf-8"?>
<!-- Generator: Adobe Illustrator 25.4.1, SVG Export Plug-In . SVG Version: 6.00 Build 0)  -->
<svg version="1.1" id="Grupo_250" xmlns="http://www.w3.org/2000/svg" xmlns:xlink="http://www.w3.org/1999/xlink" x="0px" y="0px"
	 viewBox="0 0 159.2 140.6" style="enable-background:new 0 0 159.2 140.6;" xml:space="preserve">
<style type="text/css">
	.st0{fill:url(#Trazado_354_00000144302030954854356860000013522606947106431148_);}
	.st1{fill:url(#Trazado_355_00000056399388120351978350000011335749992391128255_);}
	.st2{fill:url(#Trazado_356_00000183940381552520489030000006108665455709529526_);}
	.st3{fill:url(#Trazado_357_00000173120553406320078240000013388309189664111778_);}
	.st4{fill:url(#Trazado_358_00000094578373857728910380000011078344704648259492_);}
</style>
<linearGradient id="Trazado_354_00000079477698567555890050000012856689247601788340_" gradientUnits="userSpaceOnUse" x1="-466.5143" y1="614.9203" x2="-465.7303" y2="614.9203" gradientTransform="matrix(29.493 0 0 -29.494 13845.3887 18242.2051)">
	<stop  offset="0" style="stop-color:#FF57CE"/>
	<stop  offset="0.746" style="stop-color:#7CA9F6"/>
	<stop  offset="1" style="stop-color:#60BBFF"/>
</linearGradient>
<path id="Trazado_354" style="fill:url(#Trazado_354_00000079477698567555890050000012856689247601788340_);" d="M108.6,101.6h-6.5
	v-6.5c0-2.3-1.8-4.1-4.1-4.1c-2.3,0-4.1,1.8-4.1,4.1v6.5h-6.5c-2.3,0-4.1,1.8-4.1,4.1l0,0c0,2.3,1.8,4.1,4.1,4.1h6.5v6.5
	c0,2.3,1.8,4.1,4.1,4.1c2.3,0,4.1-1.8,4.1-4.1v-6.5h6.5c2.3,0,4.1-1.8,4.1-4.1l0,0C112.7,103.5,110.9,101.6,108.6,101.6
	C108.6,101.6,108.6,101.6,108.6,101.6z"/>
<linearGradient id="Trazado_355_00000063595235505349415840000016905929281350805889_" gradientUnits="userSpaceOnUse" x1="-466.5143" y1="614.9203" x2="-465.7303" y2="614.9203" gradientTransform="matrix(29.493 0 0 -29.494 13845.3887 18192.1992)">
	<stop  offset="0" style="stop-color:#FF57CE"/>
	<stop  offset="0.746" style="stop-color:#7CA9F6"/>
	<stop  offset="1" style="stop-color:#60BBFF"/>
</linearGradient>
<path id="Trazado_355" style="fill:url(#Trazado_355_00000063595235505349415840000016905929281350805889_);" d="M108.6,51.6h-6.5
	v-6.5c0-2.3-1.8-4.1-4.1-4.1c-2.3,0-4.1,1.8-4.1,4.1v6.5h-6.5c-2.3,0-4.1,1.8-4.1,4.1l0,0c0,2.3,1.8,4.1,4.1,4.1h6.5v6.5
	c0,2.3,1.8,4.1,4.1,4.1c2.3,0,4.1-1.8,4.1-4.1v-6.5h6.5c2.3,0,4.1-1.8,4.1-4.1l0,0C112.7,53.5,110.9,51.6,108.6,51.6
	C108.6,51.6,108.6,51.6,108.6,51.6z"/>
<linearGradient id="Trazado_356_00000153704503333715246460000002704012996132237742_" gradientUnits="userSpaceOnUse" x1="-468.9391" y1="617.3748" x2="-468.1552" y2="617.3748" gradientTransform="matrix(34.6191 0 0 -34.619 16258.9473 21431.1992)">
	<stop  offset="0" style="stop-color:#FF57CE"/>
	<stop  offset="0.746" style="stop-color:#7CA9F6"/>
	<stop  offset="1" style="stop-color:#60BBFF"/>
</linearGradient>
<path id="Trazado_356" style="fill:url(#Trazado_356_00000153704503333715246460000002704012996132237742_);" d="M50.7,53.5h-7.6
	v-7.6c0-2.7-2.2-4.8-4.8-4.8s-4.8,2.2-4.8,4.8v7.6h-7.6c-2.7,0-4.8,2.2-4.8,4.8c0,0,0,0,0,0l0,0c0,2.7,2.2,4.8,4.8,4.8l0,0h7.6v7.6
	c0,2.7,2.2,4.8,4.8,4.8c2.7,0,4.8-2.2,4.8-4.8v-7.6h7.6c2.7,0,4.8-2.2,4.8-4.8c0,0,0,0,0,0l0,0C55.6,55.6,53.4,53.5,50.7,53.5z"/>
<g id="Grupo_249" transform="translate(0 27.357)">
	
		<linearGradient id="Trazado_357_00000013915627155162840730000008031726494816469150_" gradientUnits="userSpaceOnUse" x1="-475.1394" y1="595.3508" x2="-474.3554" y2="595.3508" gradientTransform="matrix(62.31 0 0 -55.6174 29612.7285 33197.2656)">
		<stop  offset="0" style="stop-color:#FF57CE"/>
		<stop  offset="0.746" style="stop-color:#7CA9F6"/>
		<stop  offset="1" style="stop-color:#60BBFF"/>
	</linearGradient>
	<path id="Trazado_357" style="fill:url(#Trazado_357_00000013915627155162840730000008031726494816469150_);" d="M1.5,96.2
		c-1.7,1.4-2,3.9-0.6,5.6l8,10c1.4,1.7,3.9,2,5.6,0.6c0,0,0,0,0,0l47.8-38.6l-13-16.2L1.5,96.2z"/>
	
		<linearGradient id="Trazado_358_00000117661419433460933440000012303203913319975588_" gradientUnits="userSpaceOnUse" x1="-466.1128" y1="587.0184" x2="-465.3288" y2="587.0184" gradientTransform="matrix(28.7874 0 0 -28.5554 13475.6592 16817.8145)">
		<stop  offset="0" style="stop-color:#FF57CE"/>
		<stop  offset="0.746" style="stop-color:#7CA9F6"/>
		<stop  offset="1" style="stop-color:#60BBFF"/>
	</linearGradient>
	<path id="Trazado_358" style="fill:url(#Trazado_358_00000117661419433460933440000012303203913319975588_);" d="M81.7,58
		c1.7-1.4,2-3.9,0.6-5.6c0,0,0,0,0,0l-8-10c-1.4-1.7-3.9-2-5.6-0.6c0,0,0,0,0,0L54.4,53.4l13,16.2L81.7,58z"/>
</g>
</svg>
