<?xml version="1.0" encoding="utf-8"?>
<!-- Generator: Adobe Illustrator 25.4.1, SVG Export Plug-In . SVG Version: 6.00 Build 0)  -->
<svg version="1.1" id="Capa_1" xmlns="http://www.w3.org/2000/svg" xmlns:xlink="http://www.w3.org/1999/xlink" x="0px" y="0px"
	 viewBox="0 0 168.2 141.2" style="enable-background:new 0 0 168.2 141.2;" xml:space="preserve">
<style type="text/css">
	.st0{fill:url(#Rectángulo_178_00000114055213872461877670000011473569878584813961_);}
	.st1{fill:url(#Rectángulo_179_00000053526427917952465670000005797945710656168861_);}
	.st2{fill:url(#Trazado_359_00000089565987253815059180000016677542569879170748_);}
	.st3{fill:url(#Trazado_360_00000085930535634275431760000004768414293241948601_);}
	.st4{fill:url(#Trazado_361_00000138562277901392960490000018059380981571774876_);}
	.st5{fill:url(#Trazado_362_00000088097080733488792160000015019898791094730643_);}
	.st6{fill:url(#Trazado_363_00000096754670134475366550000000544498522001480635_);}
	.st7{fill:url(#Trazado_364_00000112623405906498782870000009328929565690780047_);}
</style>
<g id="Grupo_275" transform="translate(-353 -3811.438)">
	
		<linearGradient id="Rectángulo_178_00000041292667971662411180000006479091647594065049_" gradientUnits="userSpaceOnUse" x1="-123.2328" y1="4398.3477" x2="-122.6338" y2="4387.4683" gradientTransform="matrix(109.683 0 0 -10.188 13916.9814 48649.4883)">
		<stop  offset="0" style="stop-color:#FF57CE"/>
		<stop  offset="0.2657" style="stop-color:#7CA9F6"/>
		<stop  offset="1" style="stop-color:#FD58CF"/>
		<stop  offset="1" style="stop-color:#60BBFF"/>
	</linearGradient>
	<path id="Rectángulo_178" style="fill:url(#Rectángulo_178_00000041292667971662411180000006479091647594065049_);" d="
		M363.7,3855.9h99.5c2.8,0,5.1,2.3,5.1,5.1l0,0c0,2.8-2.3,5.1-5.1,5.1h-99.5c-2.8,0-5.1-2.3-5.1-5.1l0,0
		C358.6,3858.2,360.8,3855.9,363.7,3855.9z"/>
	
		<linearGradient id="Rectángulo_179_00000018221357418739399010000009920243519070683536_" gradientUnits="userSpaceOnUse" x1="-122.8461" y1="4398.3477" x2="-122.2471" y2="4387.4683" gradientTransform="matrix(100.796 0 0 -10.188 12779.4453 48670.3008)">
		<stop  offset="0" style="stop-color:#FF57CE"/>
		<stop  offset="0.3129" style="stop-color:#7CA9F6"/>
		<stop  offset="0.6677" style="stop-color:#A68EE9"/>
		<stop  offset="1" style="stop-color:#FD58CF"/>
		<stop  offset="1" style="stop-color:#60BBFF"/>
	</linearGradient>
	<path id="Rectángulo_179" style="fill:url(#Rectángulo_179_00000018221357418739399010000009920243519070683536_);" d="
		M363.7,3876.7h90.6c2.8,0,5.1,2.3,5.1,5.1l0,0c0,2.8-2.3,5.1-5.1,5.1h-90.6c-2.8,0-5.1-2.3-5.1-5.1l0,0
		C358.6,3879,360.8,3876.7,363.7,3876.7z"/>
	
		<linearGradient id="Trazado_359_00000124861224312309149280000015491611329922331305_" gradientUnits="userSpaceOnUse" x1="-116.774" y1="4440.4014" x2="-116.175" y2="4429.522" gradientTransform="matrix(43.9083 0 0 -60.4211 5492.2505 271966.4062)">
		<stop  offset="0" style="stop-color:#FF57CE"/>
		<stop  offset="0.505" style="stop-color:#7CA9F6"/>
		<stop  offset="1" style="stop-color:#FD58CF"/>
		<stop  offset="1" style="stop-color:#60BBFF"/>
	</linearGradient>
	<path id="Trazado_359" style="fill:url(#Trazado_359_00000124861224312309149280000015491611329922331305_);" d="M361.1,3952.3
		l-7.3-4.9c-0.9-0.7-1.1-2-0.4-2.9l32.6-48.9c0.3-0.4,0.7-0.7,1.2-0.9l6.9-2.5c0.9-0.4,1.9,0.1,2.3,1c0.1,0.2,0.1,0.4,0.1,0.6
		l0.4,7.3c0,0.5-0.1,1-0.4,1.4l-32.6,48.9C363.3,3952.5,362.1,3952.9,361.1,3952.3z"/>
	<g id="Grupo_262" transform="translate(358.558 3873.866)">
		
			<linearGradient id="Trazado_360_00000109011141106755468200000005245012281244211094_" gradientUnits="userSpaceOnUse" x1="-425.1829" y1="522.141" x2="-424.5839" y2="511.262" gradientTransform="matrix(7.887 0 0 -9.7161 3356.4946 5101.6167)">
			<stop  offset="0" style="stop-color:#FF57CE"/>
			<stop  offset="0.505" style="stop-color:#7CA9F6"/>
			<stop  offset="1" style="stop-color:#FD58CF"/>
			<stop  offset="1" style="stop-color:#60BBFF"/>
		</linearGradient>
		<path id="Trazado_360" style="fill:url(#Trazado_360_00000109011141106755468200000005245012281244211094_);" d="M1.4,54.2
			l6.5-9.7H3c-1.7,0-3,1.4-3,3c0,0,0,0,0,0v4.1C0,52.7,0.5,53.6,1.4,54.2z"/>
		
			<linearGradient id="Trazado_361_00000064349470781528491600000010301430737878722185_" gradientUnits="userSpaceOnUse" x1="-480.2046" y1="524.4811" x2="-479.6056" y2="513.6021" gradientTransform="matrix(80.461 0 0 -10.188 38693.25 5371.0991)">
			<stop  offset="0" style="stop-color:#FF57CE"/>
			<stop  offset="0.505" style="stop-color:#7CA9F6"/>
			<stop  offset="1" style="stop-color:#FD58CF"/>
			<stop  offset="1" style="stop-color:#60BBFF"/>
		</linearGradient>
		<path id="Trazado_361" style="fill:url(#Trazado_361_00000064349470781528491600000010301430737878722185_);" d="M102.8,44.5H32.1
			l-6.8,10.2h77.4c1.7,0,3-1.4,3-3v-4.1C105.8,45.8,104.4,44.5,102.8,44.5C102.8,44.5,102.8,44.5,102.8,44.5z"/>
	</g>
	
		<linearGradient id="Trazado_362_00000089560108891552860710000002310264670585454213_" gradientUnits="userSpaceOnUse" x1="-122.5356" y1="4398.3472" x2="-121.9366" y2="4387.4683" gradientTransform="matrix(94.522 0 0 -10.188 11987.626 48732.6758)">
		<stop  offset="0" style="stop-color:#FF57CE"/>
		<stop  offset="0.505" style="stop-color:#7CA9F6"/>
		<stop  offset="1" style="stop-color:#FD58CF"/>
		<stop  offset="1" style="stop-color:#60BBFF"/>
	</linearGradient>
	<path id="Trazado_362" style="fill:url(#Trazado_362_00000089560108891552860710000002310264670585454213_);" d="M461.3,3939.1
		h-84.7l-6.8,10.2h91.5c1.7,0,3-1.4,3-3v-4.1C464.3,3940.5,463,3939.1,461.3,3939.1z"/>
	<g id="Grupo_263" transform="translate(358.558 3853.057)">
		
			<linearGradient id="Trazado_363_00000029748691242977944900000011923420141179464625_" gradientUnits="userSpaceOnUse" x1="-464.0363" y1="545.291" x2="-463.4373" y2="534.412" gradientTransform="matrix(21.733 0 0 -10.188 10093.3809 5583.1016)">
			<stop  offset="0" style="stop-color:#FF57CE"/>
			<stop  offset="0.505" style="stop-color:#7CA9F6"/>
			<stop  offset="1" style="stop-color:#FD58CF"/>
			<stop  offset="1" style="stop-color:#60BBFF"/>
		</linearGradient>
		<path id="Trazado_363" style="fill:url(#Trazado_363_00000029748691242977944900000011923420141179464625_);" d="M3,54.6h11.9
			l6.8-10.2H3c-1.7,0-3,1.4-3,3l0,0v4.1C0,53.3,1.4,54.6,3,54.6C3,54.6,3,54.6,3,54.6z"/>
		
			<linearGradient id="Trazado_364_00000056409702911271178570000013261252848503814293_" gradientUnits="userSpaceOnUse" x1="-476.1566" y1="545.2902" x2="-475.5576" y2="534.4112" gradientTransform="matrix(47.972 0 0 -10.188 22899.3223 5583.1016)">
			<stop  offset="0" style="stop-color:#FF57CE"/>
			<stop  offset="0.505" style="stop-color:#7CA9F6"/>
			<stop  offset="1" style="stop-color:#FD58CF"/>
			<stop  offset="1" style="stop-color:#60BBFF"/>
		</linearGradient>
		<path id="Trazado_364" style="fill:url(#Trazado_364_00000056409702911271178570000013261252848503814293_);" d="M84.1,44.5H41.9
			l0.2,3.7c0.1,1.3-0.3,2.6-1,3.7l-1.9,2.8h45c1.7,0,3-1.4,3-3v-4.1C87.1,45.8,85.8,44.5,84.1,44.5C84.1,44.5,84.1,44.5,84.1,44.5z"
			/>
	</g>
</g>
</svg>
