<svg id="_5722348461605810028" data-name="5722348461605810028" xmlns="http://www.w3.org/2000/svg" xmlns:xlink="http://www.w3.org/1999/xlink" width="122.89" height="122.662" viewBox="0 0 122.89 122.662">
  <defs>
    <linearGradient id="linear-gradient" x1="0.234" y1="0.098" x2="1" y2="1" gradientUnits="objectBoundingBox">
      <stop offset="0" stop-color="#ff57ce"/>
      <stop offset="0.746" stop-color="#7ca9f6"/>
      <stop offset="1" stop-color="#60bbff"/>
    </linearGradient>
  </defs>
  <path id="Trazado_370" data-name="Trazado 370" d="M43.84,78.55l9.74,28.64,4.9-17-2.4-2.63q-1.62-2.37-.72-4.15c1.3-2.57,3.99-2.09,6.5-2.09,2.63,0,5.89-.5,6.71,2.8a4.345,4.345,0,0,1-.84,3.44l-2.4,2.63,4.9,17,8.82-28.64c6.36,5.72,25.19,6.87,32.2,10.78a18.429,18.429,0,0,1,5.83,4.93c2.44,3.23,3.94,7.44,4.35,12.79l1.46,9.33c-.36,3.78-2.5,5.96-6.73,6.29H6.73c-4.23-.32-6.37-2.5-6.73-6.29l1.46-9.33c.41-5.35,1.91-9.56,4.35-12.79a18.174,18.174,0,0,1,5.83-4.93c7.01-3.91,25.84-5.06,32.2-10.78ZM39.43,37.56a5.283,5.283,0,0,0-2.74.72,2.22,2.22,0,0,0-.79.91,3.262,3.262,0,0,0-.26,1.46c.05,1.66.92,3.82,2.59,6.31l.02.04h0l5.44,8.66c2.18,3.47,4.47,7.01,7.31,9.61a14.936,14.936,0,0,0,10.44,4.2,15.358,15.358,0,0,0,11.04-4.39c2.93-2.75,5.25-6.51,7.53-10.27l6.13-10.1c1.14-2.61,1.56-4.35,1.3-5.38-.16-.61-.83-.91-1.97-.96-.24-.01-.49-.01-.75-.01s-.56.03-.86.05a1.83,1.83,0,0,1-.47-.03,8.693,8.693,0,0,1-1.68-.09L83.81,29c-11.21-.14-18.88-2.09-27.95-7.89-2.98-1.9-3.88-4.08-6.86-3.87a10.1,10.1,0,0,0-5.65,3.06,14.656,14.656,0,0,0-3.24,6.38L41.3,37.63a8.8,8.8,0,0,1-1.87-.07Zm48.14-1.95a3.931,3.931,0,0,1,2.87,2.97c.44,1.72-.04,4.13-1.49,7.43h0l-.09.18-6.2,10.22c-2.39,3.94-4.82,7.88-8.06,10.92a18.309,18.309,0,0,1-13.14,5.22,17.884,17.884,0,0,1-12.51-5.01c-3.15-2.88-5.56-6.6-7.85-10.24l-5.44-8.65c-1.99-2.97-3.02-5.68-3.09-7.91a6.306,6.306,0,0,1,.53-2.83,5.216,5.216,0,0,1,1.87-2.17,6.282,6.282,0,0,1,1.32-.67,138.258,138.258,0,0,1-.26-15.56,21.084,21.084,0,0,1,.67-3.53A20.822,20.822,0,0,1,45.9,4.26a25.221,25.221,0,0,1,4.95-2.41C61.3-1.95,75.16.12,82.58,8.14c3.02,3.27,4.92,7.61,5.33,13.34l-.34,14.13Z" transform="translate(0 -0.008)" fill-rule="evenodd" fill="url(#linear-gradient)"/>
</svg>
