<?xml version="1.0" encoding="utf-8"?>
<!-- Generator: Adobe Illustrator 25.4.1, SVG Export Plug-In . SVG Version: 6.00 Build 0)  -->
<svg version="1.1" id="_20914644721561029437" xmlns="http://www.w3.org/2000/svg" xmlns:xlink="http://www.w3.org/1999/xlink"
	 x="0px" y="0px" viewBox="0 0 130.4 130.4" style="enable-background:new 0 0 130.4 130.4;" xml:space="preserve">
<style type="text/css">
	.st0{fill:none;}
	.st1{fill:url(#Trazado_378_00000075880242227595956570000010311269146813483935_);}
</style>
<path id="Trazado_377" class="st0" d="M-9,35.4H99.5V144H-9V35.4z"/>
<linearGradient id="Trazado_378_00000081631908295233429270000008770581182865954435_" gradientUnits="userSpaceOnUse" x1="-976.73" y1="46.2272" x2="-976.73" y2="47.2274" gradientTransform="matrix(90.49 0 0 90.487 88429.5547 -4143.0781)">
	<stop  offset="0" style="stop-color:#FF57CE"/>
	<stop  offset="0.746" style="stop-color:#7CA9F6"/>
	<stop  offset="1" style="stop-color:#60BBFF"/>
</linearGradient>
<path id="Trazado_378" style="fill:url(#Trazado_378_00000081631908295233429270000008770581182865954435_);" d="M67.9,48.9H86
	c2.5,0,4.5,2,4.5,4.5l0,0v72.5c0,2.5-2,4.5-4.5,4.5l0,0H4.5c-2.5,0-4.5-2-4.5-4.5l0,0V53.5c0-2.5,2-4.6,4.5-4.6h18.1v-9h9v9h27.1v-9
	h9v9H67.9z M9,76.1v45.2h72.4V76.1H9z M18.1,94.2h22.6v18.1H18.1V94.2z"/>
</svg>
