<?xml version="1.0" encoding="utf-8"?>
<!-- Generator: Adobe Illustrator 25.4.1, SVG Export Plug-In . SVG Version: 6.00 Build 0)  -->
<svg version="1.1" id="Capa_1" xmlns="http://www.w3.org/2000/svg" xmlns:xlink="http://www.w3.org/1999/xlink" x="0px" y="0px"
	 viewBox="0 0 157.7 107.4" style="enable-background:new 0 0 157.7 107.4;" xml:space="preserve">
<style type="text/css">
	.st0{fill:url(#Trazado_379_00000005967851880116170040000008864305929591516827_);}
</style>
<linearGradient id="Trazado_379_00000077301809678671317530000004868817806111548548_" gradientUnits="userSpaceOnUse" x1="-448.1867" y1="604.8947" x2="-448.1867" y2="605.8947" gradientTransform="matrix(91.1262 61.4654 87.4223 -129.609 -11998.5254 106077.7188)">
	<stop  offset="0" style="stop-color:#FF57CE"/>
	<stop  offset="0.746" style="stop-color:#7CA9F6"/>
	<stop  offset="1" style="stop-color:#60BBFF"/>
</linearGradient>
<path id="Trazado_379" style="fill:url(#Trazado_379_00000077301809678671317530000004868817806111548548_);" d="M152.7,22.6
	L152.7,22.6C141.6,1.8,115.8-6,95.1,5c0,0,0,0,0,0l0,0c-18.2,9.7-26.8,30.9-20.6,50.5L53.3,66.8c-2.5-1.6-5.7-1.8-8.4-0.4L4.4,88.1
	c-4,2.1-5.5,7.1-3.4,11.2c0,0,0,0,0,0l2,3.8c2.1,4,7.1,5.5,11.2,3.4c0,0,0,0,0,0l40.5-21.6c2.4-1.3,4-3.6,4.3-6.3l21.4-11.4
	c12.4,17.5,35.8,23,54.7,13l0,0C155.8,69.1,163.7,43.4,152.7,22.6z M129.1,69c-14.6,7.8-32.7,2.2-40.5-12.4S86.4,23.9,101,16.2
	s32.7-2.2,40.5,12.4c0,0,0,0,0,0C149.2,43.1,143.7,61.2,129.1,69z"/>
</svg>
