<?xml version="1.0" encoding="utf-8"?>
<!-- Generator: Adobe Illustrator 25.4.1, SVG Export Plug-In . SVG Version: 6.00 Build 0)  -->
<svg version="1.1" id="handshake" xmlns="http://www.w3.org/2000/svg" xmlns:xlink="http://www.w3.org/1999/xlink" x="0px" y="0px"
	 viewBox="0 0 172 138.5" style="enable-background:new 0 0 172 138.5;" xml:space="preserve">
<style type="text/css">
	.st0{fill:url(#Trazado_335_00000113340373993587237020000017941721053854304936_);}
	.st1{fill:url(#Trazado_336_00000134950340925169717830000016942750747556503441_);}
	.st2{fill:url(#Trazado_337_00000096035067986160695450000000100386401918790275_);}
	.st3{fill:url(#Trazado_338_00000006674220995031971260000016617539189236136588_);}
	.st4{fill:url(#Trazado_339_00000076561755894367713960000009373245413296444547_);}
	.st5{fill:url(#Trazado_340_00000118363538302091948240000010537354327279287175_);}
	.st6{fill:url(#Trazado_341_00000154399480872575033890000016228905173098005124_);}
</style>
<g id="Grupo_171" transform="translate(38.206 0.104)">
	<g id="Grupo_170">
		
			<linearGradient id="Trazado_335_00000170984062834143016970000017496979102060014524_" gradientUnits="userSpaceOnUse" x1="-509.1816" y1="625.0801" x2="-509.1816" y2="624.0801" gradientTransform="matrix(86.3447 0 0 -56.035 44008.2852 35074.3633)">
			<stop  offset="0" style="stop-color:#FF57CE"/>
			<stop  offset="0.746" style="stop-color:#7CA9F6"/>
			<stop  offset="1" style="stop-color:#60BBFF"/>
		</linearGradient>
		<path id="Trazado_335" style="fill:url(#Trazado_335_00000170984062834143016970000017496979102060014524_);" d="M67.3,59.9
			c-0.4,0.3-0.8,0.5-1.3,0.6c-10.4,1.6-18-0.9-24-2.9c-3.7-1.2-6.9-2.3-10.1-2.3c-5.5,0-9.7,2.8-13.8,5.5c-0.9,0.6-1.9,1.2-2.8,1.8
			L1.8,76.1c-2.4,2.4-2.4,6.2,0,8.6c1.1,1.1,2.7,1.8,4.3,1.8h2.1c1.4,0,2.7-0.5,3.8-1.3c1-0.8,2.1-1.8,3.4-2.8
			c6.6-5.6,12-9.9,15.6-11.3c0.3-0.1,0.6-0.2,0.9-0.2c0.6,0,1.2,0.2,1.7,0.6L71.1,104L86.3,98V48L67.3,59.9z"/>
	</g>
</g>
<g id="Grupo_173" transform="translate(15.569 54.144)">
	<g id="Grupo_172">
		
			<linearGradient id="Trazado_336_00000035495017618776920280000017786761222796541586_" gradientUnits="userSpaceOnUse" x1="-455.306" y1="548.1276" x2="-455.306" y2="547.1276" gradientTransform="matrix(12.975 0 0 -15.5697 5914.0879 8582.167)">
			<stop  offset="0" style="stop-color:#FF57CE"/>
			<stop  offset="0.746" style="stop-color:#7CA9F6"/>
			<stop  offset="1" style="stop-color:#60BBFF"/>
		</linearGradient>
		<path id="Trazado_336" style="fill:url(#Trazado_336_00000035495017618776920280000017786761222796541586_);" d="M7.9,48
			c-1.7,0-3.3,0.8-4.2,2.3l-2.8,4.2C0.3,55.3,0,56.3,0,57.3v1.2c0,2.8,2.3,5.1,5.1,5.1c1.7,0,3.3-0.8,4.2-2.3l2.8-4.2
			c0.6-0.8,0.9-1.8,0.9-2.8v-1.2C13,50.3,10.7,48,7.9,48C7.9,48,7.9,48,7.9,48z"/>
	</g>
</g>
<g id="Grupo_175" transform="translate(23.354 59.334)">
	<g id="Grupo_174">
		
			<linearGradient id="Trazado_337_00000034790298147125164030000013897718651630411938_" gradientUnits="userSpaceOnUse" x1="-469.2142" y1="547.4679" x2="-469.2142" y2="546.4679" gradientTransform="matrix(15.568 0 0 -18.163 7312.5151 9991.6729)">
			<stop  offset="0" style="stop-color:#FF57CE"/>
			<stop  offset="0.746" style="stop-color:#7CA9F6"/>
			<stop  offset="1" style="stop-color:#60BBFF"/>
		</linearGradient>
		<path id="Trazado_337" style="fill:url(#Trazado_337_00000034790298147125164030000013897718651630411938_);" d="M10.5,48h-0.2
			c-1.6,0-3.1,0.8-4.1,2L1,57c-0.7,0.9-1,1.9-1,3v1c0,2.8,2.3,5.1,5.1,5.1c0,0,0,0,0,0h0.2c1.6,0,3.1-0.8,4.1-2l5.2-7
			c0.7-0.9,1-1.9,1-3v-1C15.6,50.3,13.3,48,10.5,48C10.5,48,10.5,48,10.5,48z"/>
	</g>
</g>
<g id="Grupo_177" transform="translate(33.733 64.523)">
	<g id="Grupo_176">
		
			<linearGradient id="Trazado_338_00000103230680293491495480000003498682216019831681_" gradientUnits="userSpaceOnUse" x1="-479.5932" y1="542.2773" x2="-479.5932" y2="541.2773" gradientTransform="matrix(15.568 0 0 -18.162 7474.0967 9896.835)">
			<stop  offset="0" style="stop-color:#FF57CE"/>
			<stop  offset="0.746" style="stop-color:#7CA9F6"/>
			<stop  offset="1" style="stop-color:#60BBFF"/>
		</linearGradient>
		<path id="Trazado_338" style="fill:url(#Trazado_338_00000103230680293491495480000003498682216019831681_);" d="M10.5,48h-0.2
			c-1.6,0-3.1,0.8-4.1,2L1,57c-0.7,0.9-1,1.9-1,3v1c0,2.8,2.3,5.1,5.1,5.1c0,0,0,0,0,0h0.2c1.6,0,3.1-0.8,4.1-2l5.2-7
			c0.7-0.9,1-1.9,1-3v-1C15.6,50.3,13.3,48,10.5,48C10.5,48,10.5,48,10.5,48z"/>
	</g>
</g>
<g id="Grupo_179" transform="translate(44.112 69.713)">
	<g id="Grupo_178">
		
			<linearGradient id="Trazado_339_00000121260743908440987680000007362092865597954486_" gradientUnits="userSpaceOnUse" x1="-489.9722" y1="537.0874" x2="-489.9722" y2="536.0874" gradientTransform="matrix(15.568 0 0 -18.162 7635.6768 9802.5908)">
			<stop  offset="0" style="stop-color:#FF57CE"/>
			<stop  offset="0.746" style="stop-color:#7CA9F6"/>
			<stop  offset="1" style="stop-color:#60BBFF"/>
		</linearGradient>
		<path id="Trazado_339" style="fill:url(#Trazado_339_00000121260743908440987680000007362092865597954486_);" d="M10.5,48h-0.2
			c-1.6,0-3.1,0.8-4.1,2L1,57c-0.7,0.9-1,1.9-1,3v1c0,2.8,2.3,5.1,5.1,5.1c0,0,0,0,0,0h0.2c1.6,0,3.1-0.8,4.1-2l5.2-7
			c0.7-0.9,1-1.9,1-3v-1h0C15.6,50.3,13.3,48,10.5,48C10.5,48,10.5,48,10.5,48z"/>
	</g>
</g>
<g id="Grupo_181" transform="translate(59.479 81.198)">
	<g id="Grupo_180">
		
			<linearGradient id="Trazado_340_00000075875954066007026020000000992440854025143981_" gradientUnits="userSpaceOnUse" x1="-481.0529" y1="499.4954" x2="-481.0529" y2="498.4954" gradientTransform="matrix(8.6844 0 0 -9.2672 4181.9873 4676.9004)">
			<stop  offset="0" style="stop-color:#FF57CE"/>
			<stop  offset="0.746" style="stop-color:#7CA9F6"/>
			<stop  offset="1" style="stop-color:#60BBFF"/>
		</linearGradient>
		<path id="Trazado_340" style="fill:url(#Trazado_340_00000075875954066007026020000000992440854025143981_);" d="M8.4,52l-4.7-4
			c-0.2,0.2-0.2,0.5-0.4,0.8L0,53.2l3.5,3.2c1,1,2.7,1.1,3.7,0.1c0,0,0,0,0,0C8.5,55.2,9,52.7,8.4,52z"/>
	</g>
</g>
<g id="Grupo_183">
	<g id="Grupo_182">
		
			<linearGradient id="Trazado_341_00000128479204420735010110000004547117317713993640_" gradientUnits="userSpaceOnUse" x1="-472.1235" y1="628.2073" x2="-472.1235" y2="627.2073" gradientTransform="matrix(108.9918 0 0 -85.279 51512.1094 53620.875)">
			<stop  offset="0" style="stop-color:#FF57CE"/>
			<stop  offset="0.746" style="stop-color:#7CA9F6"/>
			<stop  offset="1" style="stop-color:#60BBFF"/>
		</linearGradient>
		<path id="Trazado_341" style="fill:url(#Trazado_341_00000128479204420735010110000004547117317713993640_);" d="M107.4,109.8
			L69.6,76.7c-3.3,1.9-8.7,6.4-12.8,9.8c-1.2,1-2.4,2-3.4,2.8c-2,1.6-4.5,2.5-7.1,2.5h-2.1c-6.2,0-11.3-5-11.3-11.3
			c0-3,1.2-5.8,3.3-8l14.5-14.3c0.7-0.5,1.5-0.9,2.3-1.4c-9.2-1.7-18.5-1.8-27.7-0.2c-5.2,0.8-10.5-0.6-14.5-4L0,48v50.1l13.5,5.6
			l1.4-2.2c3.1-4.7,9.5-6,14.2-2.9c1.4,0.9,2.5,2.2,3.3,3.6c0.4-0.1,0.8-0.1,1.3-0.2c3.8,0,7.3,2,9.1,5.3c0.4-0.1,0.8-0.1,1.3-0.2
			c3.8,0,7.3,2,9.1,5.3c0.4-0.1,0.8-0.1,1.3-0.2h0.2c5.7,0,10.3,4.6,10.3,10.3v1l6.5,5.5c0,0,0,0,0,0l2.5,2.1
			c1.5,1.2,3.4,1.8,5.3,1.8c2.1,0,3.9-1.7,3.9-3.9c0-1.2-0.5-2.3-1.4-3L58,106.7c-1.1-0.9-1.2-2.6-0.3-3.7c0.9-1.1,2.6-1.2,3.7-0.3
			l29.2,24.3c0.8,0.7,1.8,1,2.9,1h0.8c2.5,0,4.5-2,4.5-4.5c0-1.3-0.6-2.5-1.5-3.3L68.4,96.4c-1.1-1-1.1-2.6-0.2-3.7
			c0.9-1,2.4-1.1,3.5-0.3l28.6,23.8c0,0,0.1,0.1,0.1,0.1l0.4,0.4c0.8,0.7,1.8,1,2.9,1h0.7c2.5,0,4.5-2,4.5-4.6
			C109,111.9,108.4,110.6,107.4,109.8L107.4,109.8z"/>
	</g>
</g>
</svg>
